<?xml version="1.0" standalone="no"?>
<!DOCTYPE svg PUBLIC "-//W3C//DTD SVG 1.1//EN" "http://www.w3.org/Graphics/SVG/1.1/DTD/svg11.dtd">
<svg xmlns="http://www.w3.org/2000/svg">
<metadata>Copyright (C) 2015 by original authors @ fontello.com</metadata>
<defs>
<font id="fontello" horiz-adv-x="1000" >
<font-face font-family="fontello" font-weight="400" font-stretch="normal" units-per-em="1000" ascent="850" descent="-150" />
<missing-glyph horiz-adv-x="1000" />
<glyph glyph-name="aim" unicode="&#xe800;" d="m500 850c-276 0-500-224-500-500s224-500 500-500 500 224 500 500-224 500-500 500z m36-91c198-18 356-175 373-374h-107c-17 139-127 249-266 266 0 0 0 108 0 108z m-72 0v-108c-139-17-249-127-266-266h-107c18 199 175 356 373 374z m0-818c-198 18-356 175-373 374h107c17-139 127-249 266-266v-108l0 0z m58 266h-43c-8 0-14-6-14-14v-54c-90 15-161 86-176 175h54c8 0 14 6 14 14v43c0 8-6 14-14 14h-54c15 90 86 161 175 176v-54c0-8 6-14 14-14h43c8 0 14 6 14 14v54c90-15 161-86 176-175l0 0h-54c-8 0-14-6-14-14v-43c0-8 6-14 14-14h54l0 0c-15-90-86-161-175-176v54c0 8-6 14-14 14z m14-266v108c139 17 249 127 266 266h107c-18-199-175-356-373-374z m-36 338c-39 0-71 32-71 71s32 71 71 71 71-32 71-71-32-71-71-71z" horiz-adv-x="1000" />
<glyph glyph-name="areachart" unicode="&#xe801;" d="m1000-12c0-3-2-5-3-7l-121-94c-3-3-6-3-9-1-3 1-4 5-4 8v60h-760c-19 0-34 15-34 34v689h-60c-3 0-7 2-8 5-2 3-2 6 1 9l94 122c2 2 5 3 7 3 3 0 6-2 7-3l95-122c2-2 2-6 1-8-2-3-5-5-8-5h-60v-655h724v60c0 3 1 6 4 8 4 1 7 1 9-1l121-95c2-1 4-4 4-7z m-469 286l-117-148-138 169-103-100v-139h655v311l-172-124-125 31z m125 196l-139 35-103-138-138 173-103-104v-172l103 103 138-165 103 131 139-31 172 127v180l-172-139z" horiz-adv-x="1000" />
<glyph glyph-name="arrow-circle-south" unicode="&#xe802;" d="m500 850c-276 0-500-224-500-500s224-500 500-500 500 224 500 500-224 500-500 500z m0-938c-241 0-437 197-437 438s196 438 437 438 438-197 438-438-197-438-438-438z m0 351l-183 182-67-67 250-248 250 248-66 67-184-182z" horiz-adv-x="1000" />
<glyph glyph-name="arrow-east" unicode="&#xe803;" d="m188 716l132 134 492-500-492-500-132 134 360 366-360 366z" horiz-adv-x="1000" />
<glyph glyph-name="arrow-thin-east" unicode="&#xe804;" d="m731 302l-440-452-41 43 439 452c2 1 2 3 2 4s-1 4-2 5l-439 453 41 43 439-452c13-14 19-30 19-48 1-18-5-34-18-48z" horiz-adv-x="1000" />
<glyph glyph-name="arrow-thin-west" unicode="&#xe805;" d="m270 399l439 451 41-43-440-451c-1-1-1-3-1-4s0-4 1-5l439-453-40-43-439 451c-14 14-20 30-20 48 0 18 6 34 20 49z" horiz-adv-x="1000" />
<glyph glyph-name="bank" unicode="&#xe806;" d="m1000-61v-48c0-14-11-25-24-25h-952c-13 0-24 11-24 25v48c0 13 11 24 24 24h952c13 0 24-11 24-24z m-935 129v-48c0-14 11-25 24-25h823c13 0 24 11 24 25v48c0 13-11 24-24 24h-823c-14 0-24-11-24-24z m73 56h143c5 0 9 4 9 9v249c18 0 32 14 32 32v24c0 4-4 8-9 8h-23-161-23c-5 0-9-4-9-8v-24c0-18 14-32 32-32v-249c0-5 4-9 9-9z m290 0h144c5 0 9 4 9 9v249c17 0 32 14 32 32v24c0 4-4 8-9 8h-23-161-24c-5 0-8-4-8-8v-24c0-18 14-32 32-32v-249c0-5 3-9 8-9z m291 0h144c4 0 8 4 8 9v249c18 0 32 14 32 32v24c0 4-4 8-8 8h-24-162-23c-5 0-9-4-9-8v-24c0-18 14-32 32-32v-249c0-5 4-9 10-9z m281 420v-41c0-13-10-24-23-24h-954c-13 0-23 11-23 24v41c0 8 5 17 13 21l468 265c12 6 25 6 37 0l469-265c8-4 13-13 13-21z m-445 80c0 31-24 55-55 55s-55-24-55-55 25-54 55-54 55 24 55 54z" horiz-adv-x="1000" />
<glyph glyph-name="banknotes" unicode="&#xe807;" d="m988 468c7 5 12 13 12 23 0 9-5 18-13 22l-5 2-216-129v50l222 132c7 5 12 13 12 23 0 9-5 18-13 22l-323 181c-15 8-32 8-47-1l-604-361c-8-5-13-13-13-23 0-9 5-18 13-21l323-182c15-8 32-8 47 1l217 130v-50l-217-130c-14-9-32-9-47-1l-319 180-5-3c-8-5-13-13-13-23 0-9 5-18 14-22l323-182c15-8 32-8 47 1l217 130v-51l-217-129c-14-9-32-9-47-1l-319 180-5-3c-8-5-13-13-13-23 0-9 5-18 14-22l323-182c15-8 32-8 47 1l217 130v-50l-217-130c-14-9-32-9-47-1l-319 180-5-3c-8-5-13-13-13-23 0-9 5-18 14-22l323-182c15-8 32-8 47 1l605 361c7 5 12 13 12 23 0 9-5 18-13 22l-5 2-216-129v50l222 132c7 5 12 13 12 23 0 9-5 18-13 22l-5 2-216-129v50l222 132z m-347 224c29 0 54 6 73 17l133-75c-6-14-10-31-10-47 0-17 3-31 9-46l-108-64-286 159 120 71c19-9 43-15 69-15z m-283-388c-27 0-51-6-70-15l-133 76c4 13 8 26 8 41 0 18-5 35-12 51l135 81 285-161-146-87c-17 8-41 14-67 14z m-16 95c0-14-15-25-35-25-19 0-35 11-35 25 0 14 16 25 35 25 19 0 35-11 35-25z m310 219c0 14 15 25 35 25 19 0 35-11 35-25 0-14-16-25-35-25-20 0-35 12-35 25z" horiz-adv-x="1000" />
<glyph glyph-name="briefcase" unicode="&#xe808;" d="m281 116c-17 0-31 14-31 31v94c0 17 14 31 31 31h32c17 0 31-14 31-31v-94c0-17-14-31-31-31h-32z m500 79v-48c0-34-28-63-62-63h-31c-35 0-63 29-63 63v30c-38-4-80-5-125-5s-87 1-125 5v-30c0-34-28-63-62-63h-32c-34 0-62 29-62 63v48c-48 9-87 19-118 28-27 8-50 22-70 39v-240c0-52 42-94 94-94h750c52 0 94 42 94 94v239c-21-17-43-30-70-38-31-9-70-19-118-28z m219 327v-113c0-70-45-130-112-150-29-9-65-18-107-26v8c0 34-28 62-62 62h-31c-35 0-63-28-63-62v-27c-38-3-80-5-125-5s-87 2-125 5v27c0 34-28 62-62 62h-32c-34 0-62-28-62-62v-7c-42 7-78 16-107 25-67 20-112 81-112 150v113c0 51 42 94 94 94h125c0 17 14 31 31 31h31c0 69 57 125 125 125h188c69 0 125-56 125-125h31c17 0 31-14 31-31h125c52 0 94-43 94-94z m-625 125v-31h250v31c0 17-14 31-31 31h-188c-17 0-31-14-31-31z m344-531c17 0 31 14 31 31v94c0 17-14 31-31 31h-31c-18 0-32-14-32-31v-94c0-17 14-31 32-31h31z" horiz-adv-x="1000" />
<glyph glyph-name="bulb" unicode="&#xe809;" d="m588 46h-176c-13 0-23-10-23-23 0-12 10-22 23-22h176c12 0 22 10 22 22 0 13-10 23-22 23z m-4-74h-168c-13 0-23-10-23-23s10-22 23-22h168c12 0 22 10 22 22s-10 23-22 23z m-167-74c44-39 48-48 66-48h33c17 0 21 8 67 48h-166z m337 536c0-152-130-236-130-356h-248c0 120-130 204-130 356-1 325 508 325 508 0z m-222 307h-61v109h61v-109z m209 51l-53 28-54-100 54-29 53 101z m156-151l-35 50-98-70 35-49 98 69z m10-383l-109 44-23-56 109-44 23 56z m37 215h-124v-61h124v61z m-578 248l-53 99-54-29 54-99 53 29z m-130-100l-98 70-35-50 98-69 35 49z m-10-370l-25 55-110-49 25-55 110 49z m-45 222h-125v-61h125v61z" horiz-adv-x="1000" />
<glyph glyph-name="cards" unicode="&#xe80a;" d="m920 785h-679c-44 0-80-36-80-79v-179h774v-243c0-8-7-14-15-14h-49v-65h49c44 0 80 36 80 79v422c0 44-36 79-80 79z m15-129h-709v50c0 8 7 14 15 14h679c9 0 15-7 15-14v-50z m-176-161h-679c-44 0-80-36-80-79v-422c0-43 36-79 80-79h679c44 0 80 36 80 79v422c0 43-36 79-80 79z m-50-161h-64v32h64v-32z m-161 32h65v-32h-65v32z m-322-322h-97v32h97v-32z m0 256c-7-19-26-34-49-34-28 0-51 23-51 51 0 28 23 52 51 52 23 0 42-14 49-35 7 20 26 35 48 35 28 0 52-24 52-52 0-28-24-51-52-51-22 0-41 15-48 34z m161-256h-96v32h97v-32z m161 0h-96v32h96v-32z m0 258h65v-32h-65v32z m161-258h-96v32h97v-32z m-64 226v32h65v-32h-65z" horiz-adv-x="1000" />
<glyph glyph-name="chart" unicode="&#xe80b;" d="m460 572c-12 0-22-10-22-23v-361c0-13 10-23 22-23h80c12 0 23 10 23 23v360c0 13-11 23-23 23l-80 1 0 0z m134-211v-173c0-13 10-23 22-23h80c13 0 23 10 23 23v173c0 12-10 23-23 23h-79c-13 0-23-11-23-23z m-94 350c26 0 52-3 76-8l40 134c-38 8-76 13-116 13-100 0-194-30-272-80l84-113c54 34 119 54 188 54z m483-233l-133-44c6-27 10-55 10-84 0-111-50-209-128-276l82-112c113 91 186 231 186 388 0 45-6 87-17 128z m-680-32c-12 0-22-10-22-23v-236c0-13 10-23 22-23h80c12 0 23 10 23 23v236c0 13-11 23-23 23 0 0-80 0-80 0z m197-457c-199 0-361 162-361 361 0 111 50 209 129 276l-83 112c-113-92-185-232-185-388 0-276 224-500 500-500 100 0 193 30 271 80l-82 113c-55-34-119-54-189-54z m334 496l132 44c-52 136-161 243-300 292l-39-133c94-36 170-110 207-203z" horiz-adv-x="1000" />
<glyph glyph-name="clipboard" unicode="&#xe80c;" d="m699 750h-67c0 56-45 100-101 100s-100-44-100-100h-68c-18 0-33-15-33-34v-100c0-18 15-33 33-33h337c19 0 34 15 34 33v100c-1 19-16 34-35 34z m-168-37c-20 0-36 17-36 37s16 37 36 37c21 0 37-17 37-37s-16-37-37-37z m235-324c0-3-2-6-6-6h-189c-3 0-6 2-6 6v55c0 3 2 6 6 6h190c3 0 6-2 6-6l-1-55 0 0z m0-166c0-3-2-7-6-7h-189c-3 0-6 3-6 7v54c0 4 2 7 6 7h190c3 0 6-3 6-7l-1-54 0 0z m0-167c0-3-2-6-6-6h-189c-3 0-6 2-6 6v55c0 3 2 6 6 6h190c3 0 6-2 6-6l-1-55 0 0z m-368 302c-4-5-10-8-17-8s-12 2-16 7l-67 95c-4 5-3 11 1 14l15 13c5 4 11 3 15-2l51-50 83 85c1 2 3 4 7 4s5-1 7-3l16-11c5-4 5-11 2-14l-97-130z m0-167c-4-4-10-7-17-7s-12 2-16 7l-67 95c-4 4-3 11 1 14l15 13c5 3 11 3 15-2l51-51 83 85c1 3 3 4 7 4s5-1 7-2l16-12c5-3 5-10 2-14l-97-130z m0-167c-4-4-10-8-17-8s-12 3-16 7l-67 96c-4 4-3 11 1 14l15 12c5 4 11 3 15-1l51-51 83 85c1 3 3 3 7 4 3 0 5-1 7-2l16-12c5-3 5-10 2-14l-97-130z m504 626v-734c0-36-31-66-68-66h-606c-37 0-67 30-67 66v734c0 37 30 66 67 66h67v-100h-57c-5 0-10-4-10-10v-646c0-5 5-10 10-10h585c5 0 10 5 10 10v646c0 6-5 10-10 10h-57v100h67c38 0 69-29 69-66z" horiz-adv-x="1000" />
<glyph glyph-name="clock-coins" unicode="&#xe80d;" d="m0 334c0 27 67 50 150 50s150-23 150-50-67-50-150-50-150 22-150 50z m0-100v-34c0-26 59-47 134-49v19c0 5 0 10 2 14-77 2-136 23-136 50z m300 32v34c0-27-67-50-150-50s-150 23-150 50v-34c0-27 67-50 150-50 3 0 6 0 9 0 31 23 83 34 134 36 4 5 7 10 7 14z m-300-232v-34c0-26 59-47 134-49v33c-75 3-134 24-134 50z m0 66v-34c0-25 59-46 134-49v34c-75 2-134 23-134 49z m0 66v-33c0-26 59-47 134-49v33c-75 3-134 24-134 49z m689 23l20 20c7 7 8 18 2 26l-102 129-25 302c0 10-9 18-19 18h-26c-10 0-19-8-19-18l-26-320c-2-16 5-33 19-43l150-115c8-7 19-6 26 1z m-223-89v34c0-28-67-50-150-50s-150 22-150 50v-34c0-27 68-50 150-50 4 0 7 0 10 0 30 23 83 34 133 36 5 5 7 9 7 14z m-300 66c0-27 68-50 150-50s150 23 150 50-67 50-150 50-150-21-150-50z m0-166v-34c0-25 59-47 134-49v34c-75 2-134 23-134 49z m0 66v-33c0-26 59-47 134-49v19c0 5 1 10 2 14-75 3-136 24-136 49z m384 750c-230 0-419-172-446-395 16 2 31 2 46 2 17 0 34 0 52-3 25 170 172 300 348 300 195 0 353-159 353-354 0-153-99-285-237-332v-101c193 51 334 226 334 434 0 248-202 449-450 449z m-66-766c-83 0-150-23-150-50s67-50 150-50 150 23 150 50-68 50-150 50z m0-134c-83 0-150 23-150 50v-33c0-28 67-50 150-50s150 22 150 50v33c0-27-68-50-150-50z" horiz-adv-x="1000" />
<glyph glyph-name="coins" unicode="&#xe80e;" d="m0 600v50c0-46 105-84 234-84s233 38 233 84v-50c0-46-104-84-233-84s-234 38-234 84z m234 16c129 0 233 38 233 84s-104 84-233 84-234-38-234-84 105-84 234-84z m0-200c129 0 233 38 233 84v50c0-46-104-84-233-84s-234 38-234 84v-50c0-46 105-84 234-84z m0-300v50c-129 0-234 38-234 84v-50c0-46 105-84 234-84z m0 200c129 0 233 38 233 84v50c0-46-104-84-233-84s-234 38-234 84v-50c0-46 105-84 234-84z m0-282v33c-129-1-234 37-234 83v-50c0-46 105-84 234-84 0 5 0 11 0 18z m0 182c0 0 0 0 0 0 3 20 13 37 29 51-10-1-19-1-29-1-129 0-234 38-234 84v-50c0-46 105-84 234-84z m532-150c0-20 0-37 0-50 129 0 234 38 234 84v50c0-46-105-84-234-84z m0 350c129 0 234 38 234 84s-105 84-234 84-233-38-233-84 105-84 233-84z m0-50c-128 0-233 38-233 84v-50c0-46 105-84 233-84s234 38 234 84v50c0-46-105-84-234-84z m0-100c-10 0-20 0-29 1 16-14 27-31 29-51 0 0 0 0 0 0 129 0 234 38 234 84v50c0-46-105-84-234-84z m0-100c0-14 0-32 0-50 129 0 234 38 234 84v50c0-46-105-84-234-84z m-32 34c0-46-105-84-234-84s-234 38-234 84 105 84 234 84 234-38 234-84z m-234-134c-129 0-234 38-234 84v-50c0-46 105-84 234-84s234 38 234 84v50c0-46-105-84-234-84z m0-100c-129 0-234 38-234 84v-50c0-46 105-84 234-84s234 38 234 84v50c0-46-105-84-234-84z" horiz-adv-x="1000" />
<glyph glyph-name="compass" unicode="&#xe80f;" d="m500 753c223 0 403-180 403-403 0-223-180-403-403-403-223 0-403 180-403 403 0 223 180 403 403 403m0 97c-276 0-500-224-500-500s224-500 500-500 500 224 500 500-224 500-500 500z m-141-404l-69 114 115-69c-19-12-34-27-46-45z m239 43c16-11 30-25 41-41l71 112-112-71z m-238-239l-70-110 110 70c-16 11-29 24-40 40z m237-42l113-68-68 113c-11-18-27-33-45-45z m253 142l-241-53c-11-22-27-40-48-52l-61-245-61 245c-21 12-37 30-48 52l-241 53 241 53c11 22 27 40 48 52l61 245 61-245c21-12 37-30 48-52l241-53z m-295 0c0 30-24 55-55 55s-55-24-55-55c0-30 25-55 55-55s55 25 55 55z" horiz-adv-x="1000" />
<glyph glyph-name="cubes" unicode="&#xe810;" d="m750 432v268l-252 150-248-148v-271l-250-135v-301l256-145 244 141 245-141 255 145v300l-250 137z m-48-1l-179-100v207l179 105v-212z m-204 363l179-108-179-105-174 107 174 106z m-424-512l199 106 177-101-194-111-182 106z m206-149l197 112v-211l-197-115v214z m271 155l177 100 199-108-182-104-194 112z m401-263l-184-106v214l184 105v-213z" horiz-adv-x="1000" />
<glyph glyph-name="dashboard" unicode="&#xe811;" d="m500 850c-276 0-500-224-500-500s224-500 500-500 500 224 500 500-224 500-500 500z m0-875c-207 0-375 168-375 375s168 375 375 375 375-168 375-375-168-375-375-375z m-36 554c-128 0-250-98-250-179 0 158 128 286 286 286 91 0 173-43 225-110-30-13-68-30-108-49-36 32-90 52-153 52z m-34-216c-49-48-49-128 0-176 48-49 128-49 176 0 49 48 180 356 180 356s-308-130-356-180z m88-142c-30 0-54 24-54 54s24 54 54 54 54-24 54-54-24-54-54-54z" horiz-adv-x="1000" />
<glyph glyph-name="data" unicode="&#xe812;" d="m64 415c19-3 24-25 28-40 6-23 5-48 6-71 4-42 37-74 57-109 19-29 50-50 85-51-10 24-39 58-61 70-18 17-29 44-19 68 9 18 38 18 51 4 40-31 70-75 117-97 48-27 101-55 124-107 24-72 23-132 11-207-1-13-2-24-10-24-39 0-79 0-119 0-13 1-10 31-10 46 0 61-38 97-80 114-44 23-106 63-116 80-26 51-82 108-88 157-5 48-28 168 24 167l0 0z m872 0c-19-3-24-25-28-40-6-23-5-48-6-71-4-42-37-74-57-109-19-29-50-50-85-51 10 24 39 58 61 70 18 17 29 44 19 68-9 18-38 18-51 4-40-31-70-75-117-97-48-27-101-55-124-107-24-72-23-132-11-207 1-13 2-24 10-24 39 0 79 0 119 0 13 1 10 31 10 46 0 61 38 97 80 114 44 23 107 63 116 80 26 51 82 108 88 157 5 48 28 168-24 167l0 0z m-441-256l-79 79c-4 3-4 7 0 11l79 79c3 3 7 3 10 0l80-79c3-4 3-8 0-11l-80-79c-3-3-8-3-10 0z m-121 121l-80 79c-3 3-3 7 0 11l80 79c3 3 7 3 10 0l80-79c3-4 3-8 0-11l-80-79c-3-3-8-3-10 0z m-122 122l-80 79c-3 3-3 7 0 11l80 79c3 3 7 3 10 0l80-79c3-4 3-8 0-11l-80-79c-2-3-7-3-10 0z m285-32l79 79c3 3 7 3 11 0l79-79c3-4 3-8 0-11l-79-79c-4-3-8-3-11 0l-79 79c-3 3-3 8 0 11z m121 122l79 79c3 3 7 3 11 0l79-79c3-4 3-8 0-11l-79-79c-4-3-8-3-11 0l-79 79c-3 3-3 7 0 11z m-242 0l79 79c3 3 7 3 10 0l80-79c3-4 3-8 0-11l-80-79c-3-3-7-3-10 0l-79 79c-4 3-4 7 0 11z m-142 128l69 88c3 3 8 4 11 2l88-69c3-3 4-7 2-11l-69-88c-3-3-8-4-11-1l-88 69c-4 2-5 7-2 10z m151 216l112 14c4 1 8-2 8-6l14-112c1-4-2-8-6-8l-112-14c-4-1-8 2-8 6l-14 112c0 4 2 7 6 8z m180-121l106-37c4-1 5-5 5-9l-37-106c-2-4-6-6-10-5l-106 37c-4 2-5 6-5 10l37 106c2 4 7 6 10 4z" horiz-adv-x="1000" />
<glyph glyph-name="factory" unicode="&#xe813;" d="m616 750c0-55-59-100-133-100-37 0-70 11-94 29-19-17-48-29-81-29-27 0-52 8-71 21-12-12-32-21-54-21-37 0-67 23-67 50s30 50 67 50c6 0 12-1 19-2 8 39 53 68 106 68 23 0 44-5 62-14 23 29 65 48 113 48 74 0 133-44 133-100z m-366-234v67c0 19-15 33-34 33h-132c-19 0-34-14-34-33v-67h200z m734-620v-25c0-12-10-21-21-21h-925c-12 0-22 9-22 21v25c0 12 10 21 22 21h12v567h200v-167l215 164c3 3 8 3 12 1 4-1 6-5 6-10v-156l215 165c3 2 8 3 11 0 4-1 7-5 7-10v-155l215 164c3 2 7 3 11 1 4-2 6-6 6-11v-155-400h13c13 1 23-8 23-19z m-568 154h-100v-66h100v66z m0 134h-100v-67h100v67z m200-134h-100v-66h100v66z m0 134h-100v-67h100v67z m200-134h-100v-66h100v66z m0 134h-100v-67h100v67z" horiz-adv-x="1000" />
<glyph glyph-name="flowchart" unicode="&#xe814;" d="m296 496h408v204h-408v-204z m68 136h272v-68h-272v68z m568 0h-160v-68h160v-176h-51v75l-109-109 109-109v75h50c38 0 68 31 68 68v176c1 38-29 68-67 68z m-932-312v-177c0-37 31-68 68-68h51v-75l108 109-108 109v-75h-51v177h160v68h-160c-37 0-68-31-68-68z m296-314h408v204h-408v-204z m68 136h272v-68h-272v68z m-68 109h408v205h-408v-205z m68 137h272v-69h-272v69z" horiz-adv-x="1000" />
<glyph glyph-name="heartbeat" unicode="&#xe815;" d="m389 562c2 11 13 19 24 19 0 0 0 0 0 0 11 0 21-8 23-19l72-320 63 224c3 10 13 17 24 18 0 0 0 0 0 0 11 0 20-7 23-18l46-153h261c60 85 93 183 66 303-53 224-380 280-491 54-111 226-438 170-490-54-28-120 6-218 66-303h259l54 249z m234-280l-28 91-67-236c-3-10-12-18-23-18 0 0-1 0-1 0-11 0-20 8-23 19l-68 306-35-160c-2-11-12-18-23-18h-241c129-149 329-257 386-379 58 122 258 231 386 379h-241c-10-1-19 6-22 16z" horiz-adv-x="1000" />
<glyph glyph-name="leaf" unicode="&#xe816;" d="m520 629c-121-122-114-226-58-300 1-2-21-39-44-113-12 18-27 38-41 54 19 54 6 118-82 167-106 60-295-5-295-5 121-68 140-186 178-223 79-79 156 7 156 7s-64 118-186 179c122-14 213-157 213-157 17-25 31-64 40-90-5-20-9-42-12-64-115-9-206-61-227-126-3-7-1-14 3-20 4-5 11-9 18-9h480c7 0 14 3 18 9 3 6 5 14 3 20-21 64-107 114-217 125 25 208 119 438 314 552-171-162-228-367-228-367s161-92 256 70c45 77 37 171 67 256 23 69 125 178 125 178s-335 4-481-143z" horiz-adv-x="1000" />
<glyph glyph-name="maintenance" unicode="&#xe817;" d="m884 778h-768c-64 0-116-51-116-115v-625c0-65 52-116 116-116h768c64 0 116 51 116 116v625c1 64-52 115-116 115z m-50-83c0 10 8 18 18 18h31c10 0 18-8 18-18v-31c0-10-8-18-18-18h-31c-10 0-18 8-18 18v31z m-133 0c0 10 8 18 18 18h30c10 0 18-8 18-18v-31c0-10-8-18-18-18h-30c-10 0-18 8-18 18v31z m-134 0c0 10 8 18 18 18h31c10 0 18-8 18-18v-31c0-10-8-18-18-18h-31c-10 0-18 8-18 18v31z m317-708h-768c-27 0-50 22-50 50v544h868v-545h0c0-27-22-49-50-49z m-151 321c0 4-2 7-4 11-1 1-2 1-2 3-1 1-4 2-8 5l-44 14c-3 10-7 19-12 29l21 40c4 7 3 15-2 21-1 1-3 3-7 8-5 6-12 13-19 20l-8 7c-4 3-9 4-13 4-3 0-6 0-8-2l-41-20c-9 4-20 8-29 11l-13 43c-2 7-9 14-18 14l-11-2c-5 0-9 0-15 0-5 0-9 0-13-1l-11 0c-6-1-10-4-13-7-2-2-3-4-4-7l-14-43c-10-3-19-7-29-11l-41 21c-3 1-5 2-9 2-4 0-9-2-13-5l-8-7c-7-7-14-13-20-19-4-5-5-7-7-9-5-5-5-14-2-21l21-40c-5-9-9-19-12-29l-44-13c0 0-1-1-1-1-3-1-5-2-7-4 0 0 0 0-1-1-3-4-4-8-4-11l-1-10c-1-10-1-18 0-27l1-10c0-8 5-15 14-17l44-13c3-11 7-20 12-29l-21-39c-4-7-3-17 3-23l7-8c6-7 12-13 19-19l9-8c3-3 8-4 11-4 3 0 6 1 8 1 1 0 1 0 2 1l40 21c9-4 19-8 29-11l14-44c4-8 10-13 18-13l11 0c3 0 7 0 11 0 6 0 11 0 17 0l9 1c6 0 12 2 15 8 1 2 2 5 3 6l14 43c10 3 19 7 28 12l42-21c3-1 6-2 8-2 5 0 9 2 13 5l8 6c7 6 14 13 19 20l7 7c6 7 7 16 3 22l-21 41c5 9 9 19 12 29l44 14c7 3 13 9 13 17l1 10c0 9 0 18 0 28l-1 6z m-233-139c-64 0-116 51-116 115s52 116 116 116 117-52 117-116-51-115-117-115z" horiz-adv-x="1000" />
<glyph glyph-name="map" unicode="&#xe818;" d="m776-12c0-76-124-138-276-138s-276 62-276 138c0 50 52 93 128 117 10-15 18-30 27-45-52-14-86-37-86-63 0-43 93-78 207-78s207 35 207 78c0 26-34 48-86 63 9 15 17 30 27 45 76-25 128-68 128-117z m-276 862c-171 0-310-137-310-308 0-179 166-273 293-544 3-6 9-11 17-11 7 0 14 4 17 11 127 270 294 365 294 544-1 171-140 308-311 308z m0-483c-95 0-173 78-173 173s78 172 173 172c95 0 173-78 173-173s-78-172-173-172z m0 276c-57 0-103-46-103-103s46-104 103-104 103 47 103 104-46 103-103 103z" horiz-adv-x="1000" />
<glyph glyph-name="paper-plane" unicode="&#xe819;" d="m997 720c-3 4-8 5-13 4l-973-249c-6-2-10-6-11-12-1-7 2-12 8-15l230-125 31-272c1-6 4-10 8-12 4-2 10-2 14 1l197 128 219-189c4-3 9-4 13-3 5 1 9 4 11 8l268 724c2 4 1 9-2 12z m-612-458l-71-151-29 230 711 379-611-458z" horiz-adv-x="1000" />
<glyph glyph-name="phone" unicode="&#xe81a;" d="m279 129c0 0 0 0 0 0 0 0 0 0 0 0l0 0z m696-166c54 71 7 110-21 132-27 20-155 101-176 115-20 14-72 31-110-14-51-59-93-132-273 49-181 181-109 224-50 274 45 37 28 90 14 110-13 20-94 148-114 176-21 27-61 75-132 21-34-27-65-56-86-93-70-122-10-342 252-603 262-262 481-322 603-252 37 20 67 52 93 85z m-462 805c96 5 208-34 289-116 82-81 121-193 116-289 0-4 1-7 3-10 2-1 4-3 7-3 6-1 13 3 14 9 39 124 6 257-85 348-91 91-224 124-348 85-6-1-10-8-9-14 0-2 2-5 3-7 3-2 6-4 10-3z m245-456c-2 2-3 5-3 8 2 68-30 143-86 199-56 56-131 88-199 86-3 0-6 1-8 3-2 1-3 4-3 6-1 6 2 11 7 13 93 32 193 12 257-54 65-64 86-163 54-257-1-5-7-8-13-7-2 0-5 1-6 3z" horiz-adv-x="1000" />
<glyph glyph-name="pie-chart" unicode="&#xe81b;" d="m448 316l249-373c-71-48-156-75-249-75-247-1-448 200-448 448s201 448 448 448v-448z m69 517v-449h449c0 248-201 449-449 449z m283-891c120 81 200 217 200 373h-448l248-373z" horiz-adv-x="1000" />
<glyph glyph-name="plane" unicode="&#xe81c;" d="m785 317l28-196c2-14-7-28-21-32l-58-19c-9-3-20 0-26 8l-139 167c18 6 36 11 54 18 42 14 85 28 128 43 12 3 23 7 34 11z m206 241c-1 2-3 4-5 6-81-3-138-31-159-38-22-7-32 28-4 39 25 9 52 25 105 28-69 16-172 2-237-23-14-6-45-20-87-40l-402 100c-13 3-28 1-39-7l-61-36c-5-3-8-9-8-14 0-6 3-11 8-14l246-154c-49-24-95-47-135-67l-143 71c-7 4-17 4-25 0l-37-18c-3-2-6-5-7-8-1-3-1-7 1-11l61-116c-26-22-38-48-29-68 15-30 71-29 122-22 137 20 354 100 583 175 259 85 278 182 252 217z" horiz-adv-x="1000" />
<glyph glyph-name="quotes" unicode="&#xe81d;" d="m13 163c-54 193 65 483 366 543l41-89c-92-35-154-114-162-197 104-17 183-107 183-215 0-241-356-302-428-42z m559 0c-54 193 65 483 366 543l41-89c-92-35-153-114-163-197 104-17 183-107 183-215 1-241-354-302-427-42z" horiz-adv-x="1000" />
<glyph glyph-name="scale" unicode="&#xe81e;" d="m563 1v519c78-6 131-27 190-38l-89-226h59l86 219c3 0 5 0 7 0l86-217h59l-88 222c33 8 56 26 63 47 5 16 1 41-27 41-26 0-20-31-80-31-68 0-146 114-266 146l-58 129c-1 1-3 3-5 3-2 0-4-1-5-3l-58-130c-121-32-198-146-266-146-60 0-54 31-80 31-28 0-32-25-27-40 7-22 29-40 63-48l-88-223h59l86 217c2 0 4 0 7 0l86-217h59l-89 225c59 11 112 31 191 38v-517c-91-15-219-54-219-81v-15c0-12 9-21 22-21h197 125 196c12 0 22 9 22 21v14c0 27-128 66-218 81z m-63 558c-22 0-39 18-39 39s17 40 39 40c22 0 39-18 39-40s-17-39-39-39z m-312-489c-101 0-178 57-188 138-1 5 1 8 4 12 3 3 7 6 12 6h11 58 204 59 11c5 0 9-2 12-6 3-3 5-7 4-12-10-81-87-138-187-138z m808 150c3-4 5-8 4-13-9-81-87-137-187-137s-178 57-188 137c-1 5 1 9 4 13 3 3 7 5 12 5h11 58 204 59 11c5 0 9-2 12-5z" horiz-adv-x="1000" />
<glyph glyph-name="scandic" unicode="&#xe81f;" d="m991 244l-38 172c-1 4-3 8-5 13-3 5-7 9-10 13-4 4-8 9-13 12-5 4-9 6-14 9l-174 84c-3 1-6 3-10 4-4 1-7 1-11 2-3 0-6 0-10 0-3 0-6 0-9-1-2 0-3 0-5 0-1-1-3-1-4-2-1-1-2-1-4-2 0 0-2-1-3-2l-113-94c-4-4-6-7-8-11-1-4-3-10-3-14 0-5 0-11 2-16 1-5 4-10 7-15l129-185c3-5 8-11 14-16 6-4 12-8 19-12 6-3 13-6 20-7 8-2 14-3 19-2l198 25c1 0 1 0 1 0 1 0 2 0 2 0 1 0 1 0 2 1 0 0 0 0 1 1 4 1 8 4 11 6 3 3 6 6 8 10 1 4 3 8 4 13-1 4-2 9-3 14z m-489 138c-1 6-4 10-7 16-4 4-8 9-14 13-4 4-10 8-16 10-6 3-12 5-18 6l-224 43c-2 0-4 0-7 0-2 0-4 0-7 0-2 0-4 0-7 0-2 0-4 0-7 0-4-1-8-2-13-4-4-1-9-3-12-4-4-3-7-4-11-7-3-3-7-6-9-8l-144-185c-4-6-8-13-10-21-2-7-4-14-4-22 0-8 2-15 4-22 2-7 6-13 12-19l198-203c6-6 12-9 19-13 7-3 15-7 23-8 8-2 15-2 24-2 8 1 16 3 23 5 0 0 2 1 3 1 0 1 1 1 3 1 1 1 1 1 3 2 1 1 2 1 2 1l237 136c5 4 11 8 15 14 4 5 8 11 10 18 2 6 4 13 4 20 0 7-1 14-3 20l-67 212z m-280 184c4-3 8-7 12-11 5-3 11-7 17-8l205-70c3 0 5-1 8-2 3-1 6-1 9-1 3 0 6 0 8 0 3 0 6 1 9 1 3 1 5 2 8 2 2 1 4 2 7 4 2 0 4 2 6 3 2 2 4 4 5 5l90 108c3 2 4 6 5 9 1 4 1 7 0 11-1 4-2 8-5 12-2 4-4 7-8 10l-115 109c-3 4-7 6-11 8-4 3-9 5-14 7-5 1-10 3-15 3-5 1-9 1-14 1l-168-11c-5 0-10-1-14-3-5-1-9-4-12-6-4-2-6-6-8-9-3-3-4-6-4-10l-11-137c0-3 1-8 2-13 2-3 5-8 8-12z" horiz-adv-x="1000" />
<glyph glyph-name="shield" unicode="&#xe820;" d="m910 692c-107 4-244 42-399 154-6 5-16 5-22 0-156-112-293-150-399-154-10 0-18-8-18-19 0-44 0-166 0-360 0-301 369-443 423-461 3-2 8-2 12 0 53 18 423 160 423 461 0 194 0 317 0 360-1 10-10 18-20 19z m-88-381c0-216-238-320-321-349 0 0 0 0 0 0v387h-323v242c89 15 199 51 322 129v-370h322v-39z" horiz-adv-x="1000" />
<glyph glyph-name="strategy" unicode="&#xe821;" d="m195 159c3 139 86 278 271 279v-86c0-7 4-13 11-16 2-2 5-2 7-2 4 0 8 1 11 4l165 131c5 4 7 9 7 15 0 6-2 11-7 14l-165 132c-4 2-7 4-11 4-3 0-6-1-8-3-6-3-10-9-10-16v-87c-211-1-359-152-362-369-59-19-104-75-104-143 0-82 67-150 150-150s150 68 150 150c0 68-44 124-105 143z m-45-209c-37 0-66 30-66 66s29 67 66 67 66-30 66-67-29-66-66-66z m700 684c-83 0-150-68-150-150s67-150 150-150 150 67 150 150-67 150-150 150z m0-218c-37 0-66 30-66 67s29 66 66 66c37 0 66-29 66-66s-29-67-66-67z m-155-246l-71-70 71-70c7-7 7-19 0-26l-33-33c-7-7-19-7-26 0l-70 70-71-70c-3-3-7-5-12-5-5 0-10 1-13 5l-32 33c-7 7-7 19 0 26l70 70-70 70c-4 3-6 8-6 13s2 9 6 12l32 33c7 7 19 7 26 0l70-69 71 70c7 7 19 7 26 0l32-33c7-8 7-19 0-26z m-689 600c-4 3-6 8-6 13s2 9 6 12l32 33c7 7 19 7 26 0l70-70 71 70c7 7 18 7 26 0l31-33c7-7 7-18 0-25l-71-71 71-70c7-7 7-19 0-26l-33-33c-7-7-19-7-26 0l-70 71-70-71c-4-3-8-5-13-5-5 0-9 1-12 5l-33 33c-7 7-7 19 0 26l70 70-69 71z" horiz-adv-x="1000" />
<glyph glyph-name="team" unicode="&#xe822;" d="m1000 163v-26c0-16-12-28-28-28h-184c-18 11-37 19-52 25l-9 3c-3 1-9 3-18 6-48 16-68 26-77 31v9c26 26 43 49 56 87 53 14 64 74 71 108 2 13 10 56-16 86-5 6-9 9-14 13 4 64-18 109-40 137-24 31-56 53-91 69 11 59 47 76 106 76 0 0-6 28 38 28 70 0 209-51 172-198 22 0 34-4 27-49-9-51-19-63-43-63-3 0-3 0-6-3-10-51-25-62-53-93v-44c0-38 59-63 74-68 38-18 87-32 87-106z m-736-30l9 3c3 2 9 3 18 6 48 16 68 26 77 31v7c-29 25-49 51-63 93-49 22-59 82-64 104-2 14-10 55 15 86 5 5 10 10 14 13-4 75 9 122 39 156 25 27 57 39 88 43-24 81-119 110-172 110-44 0-38-27-38-27-83 0-121-34-106-170-21 0-38-6-30-49 8-50 24-63 47-63 12-53 31-69 62-99v-42c0-37-59-62-73-68-38-16-87-30-87-104v-26c0-16 13-28 28-28h184c19 11 37 18 52 24z m444-44c-16 6-127 34-127 74v42c40 36 55 58 66 113 3-1 9-2 12-2 28 0 39 15 48 70 9 50-12 54-37 54 42 161-111 216-189 216-48 0-42-30-42-30-93 0-130-37-113-186-23-1-42-6-33-54 10-55 27-70 54-70 13-57 31-79 73-112v-41c0-42-111-68-127-75-44-17-98-32-98-115v-28c0-17 14-30 32-30h549c18 0 32 14 32 30v28c-2 83-56 98-100 116z" horiz-adv-x="1000" />
<glyph glyph-name="tower" unicode="&#xe823;" d="m836 850c80-80 130-192 130-315 0-122-50-234-130-315l-65 65c64 64 103 153 103 250s-40 186-103 250l65 65z m-189-189c32-32 52-77 52-126s-19-94-52-126l66-65c49 49 79 116 79 191 0 75-30 142-79 192l-66-66z m-418 124c-64-64-103-152-103-250s40-186 103-250l-65-65c-80 81-130 192-130 315s50 235 130 315l65-65z m59-58c-50-50-80-117-80-192 0-75 30-142 80-191l65 65c-32 32-52 77-52 126s19 94 52 126l-65 66z m267-328c-3 20 4 40 18 53 22 20 35 47 36 78 2 60-46 111-106 112-60 2-111-46-112-106-1-34 13-63 36-84 14-14 21-34 18-54-32-222-111-404-239-549h125c43 59 96 93 169 93h0c74 0 126-35 170-93h124c-128 147-207 328-239 550z m-112-359c23 49 41 101 57 155 16-54 35-106 57-155h-114z" horiz-adv-x="1000" />
<glyph glyph-name="umbrella" unicode="&#xe824;" d="m466 334h67v-350c0-65-52-117-117-117s-116 52-116 117v16c0 19 15 34 34 34s33-15 33-34v-16c0-28 23-50 50-50 28 0 50 22 50 50v350z m68 431v35c0 19-15 34-34 34-19 0-34-15-34-34v-35c-257-18-466-237-466-499 0 67 75 134 166 134s167-66 167-134c0 67 75 134 166 134s167-66 167-134c0 67 75 134 166 134s168-66 168-134c0 262-209 481-466 499z" horiz-adv-x="1000" />
<glyph glyph-name="user-network" unicode="&#xe825;" d="m1000 288c0-52-42-94-94-94s-93 42-93 94c0 3 0 7 0 10l-72 33c-18-29-39-54-64-74l44-68c10 3 19 5 29 5 52 0 94-42 94-94s-42-94-94-94-94 42-94 94c0 19 6 36 15 51l-47 72c-29-14-60-24-93-27v-70c35-13 62-47 62-88 0-52-42-94-94-94s-93 42-93 94c0 40 26 75 62 88v70c-34 4-65 13-94 27l-47-72c10-15 15-32 15-51 0-52-42-94-94-94s-93 42-93 94 42 94 93 94c11 0 20-3 29-5l44 68c-25 20-47 45-63 74l-73-33c0-3 1-7 1-10 0-52-42-94-94-94s-92 42-92 94 42 93 94 93c26 0 49-10 65-27l74 34c-10 27-14 57-14 87 0 156 126 281 281 281s281-125 281-281c0-30-4-60-14-87l74-34c17 16 40 27 65 27 52 0 94-42 94-93z m-867 0c0 21-17 39-39 39s-39-18-39-39 17-40 39-40 39 18 39 40z m156-188c0 22-17 39-39 39s-39-17-39-39 17-39 39-39 39 17 39 39z m422 0c0-22 17-39 39-39s39 17 39 39-17 39-39 39-39-17-39-39z m-211-23c-22 0-39-18-39-39s17-40 39-40 39 18 39 40-17 39-39 39z m220 398c0 121-99 220-220 220s-220-99-220-220 99-220 220-220c121 0 220 99 220 220z m225-187c0 21-17 39-39 39s-39-18-39-39 17-40 39-40 39 18 39 40z m-289 85c0 48-68 41-109 72v23c9 11 16 24 18 39 11 0 17 5 20 28 3 20-4 22-12 22 15 64-42 90-78 90-17 0-16-12-16-12-35 0-61-17-51-78-8 0-15-2-12-22 4-22 10-28 20-28 2-15 9-28 18-39v-23c-41-31-109-24-109-72 0-1 0-1 0-2 32-50 90-83 155-83s123 33 156 84c0 0 0 1 0 1z" horiz-adv-x="1000" />
<glyph glyph-name="warehouse" unicode="&#xe826;" d="m983 552l-471 214c-8 4-17 4-24 0l-471-214c-11-5-17-16-17-29v-50c0-14 12-27 26-27h38v-457c0-33 26-59 57-59h40v388h677v-387h38c33 0 59 28 59 61v455h38c15 0 26 12 26 27v50c1 12-6 23-16 28z m-660-98c0-4-3-7-7-7h-148c-4 0-7 3-7 7v50c0 4 3 7 7 7h148c4 0 7-3 7-7v-50z m258 0c0-4-4-7-8-7h-146c-4 0-7 3-7 7v50c0 4 3 7 7 7h147c4 0 7-3 7-7v-50z m258 0c0-4-3-7-7-7h-148c-3 0-7 3-7 7v50c0 4 4 7 7 7h148c4 0 7-3 7-7v-50z m-355-184v-129c0-9-7-17-17-17h-128c-8 0-16 7-16 17v129c0 8 7 16 16 16h49v-32h32v32h48c9-1 16-8 16-16z m193 0v-129c0-9-7-17-16-17h-129c-9 0-16 7-16 17v129c0 8 7 16 16 16h49v-32h32v32h48c9-1 16-8 16-16z m-290-194v-129c0-9-7-17-17-17h-128c-8 0-16 7-16 17v129c0 8 7 16 16 16h49v-32h32v32h48c9 0 16-8 16-16z m194 0v-129c0-9-8-17-17-17h-129c-8 0-16 7-16 17v129c0 8 7 16 16 16h49v-32h32v32h48c9 0 17-8 17-16z m193 0v-129c0-9-7-17-16-17h-129c-9 0-16 7-16 17v129c0 8 7 16 16 16h48v-32h32v32h49c9 0 16-8 16-16z" horiz-adv-x="1000" />
</font>
</defs>
</svg>
