<?xml version="1.0" encoding="utf-8"?>
<!-- Generator: Adobe Illustrator 18.0.0, SVG Export Plug-In . SVG Version: 6.00 Build 0)  -->
<!DOCTYPE svg PUBLIC "-//W3C//DTD SVG 1.1//EN" "http://www.w3.org/Graphics/SVG/1.1/DTD/svg11.dtd">
<svg version="1.1" id="Layer_1" xmlns="http://www.w3.org/2000/svg" xmlns:xlink="http://www.w3.org/1999/xlink" x="0px" y="0px"
	 viewBox="0 0 140 51.3" enable-background="new 0 0 140 51.3" xml:space="preserve">
<g>
	<g>
		<path fill="#141B4D" d="M45.2,14.7c0-0.4,0.2-0.8,0.5-1.3c0.4-0.5,0.7-0.8,0.9-0.8c0.1,0,0.3,0.1,0.6,0.3c1,0.5,1.9,0.8,2.8,0.8
			c1.5,0,2.2-0.6,2.2-1.7c0-0.5-0.2-0.9-0.7-1.3c-0.5-0.3-1-0.6-1.7-0.9c-0.7-0.3-1.3-0.6-2-0.9c-0.7-0.3-1.2-0.9-1.7-1.6
			c-0.5-0.7-0.7-1.6-0.7-2.6s0.3-2,0.8-2.7c1-1.4,2.6-2,4.7-2c1.2,0,2.2,0.2,3,0.5c0.8,0.3,1.2,0.7,1.2,1.1c0,0.3-0.1,0.8-0.4,1.3
			c-0.3,0.5-0.6,0.8-0.8,0.8c-0.1,0-0.2-0.1-0.4-0.2c-0.6-0.3-1.3-0.4-2.2-0.4c-0.8,0-1.4,0.1-1.7,0.4c-0.3,0.3-0.5,0.6-0.5,1.1
			s0.2,0.8,0.7,1.1c0.5,0.3,1,0.6,1.7,0.9c0.7,0.3,1.3,0.5,2,0.9c0.7,0.3,1.2,0.9,1.7,1.6c0.5,0.7,0.7,1.5,0.7,2.5
			c0,1-0.2,1.8-0.5,2.5c-0.3,0.7-0.7,1.2-1.3,1.6c-1,0.8-2.3,1.1-3.8,1.1c-1.5,0-2.8-0.2-3.8-0.7C45.7,15.7,45.2,15.2,45.2,14.7z"/>
		<path fill="#141B4D" d="M57.4,8.3C57.4,2.8,60,0,65.3,0c1.1,0,2.2,0.2,3.3,0.5c1.1,0.3,1.6,0.7,1.6,1.2C70.2,2,70,2.4,69.6,3
			c-0.4,0.6-0.7,0.8-1,0.8c0,0-0.2-0.1-0.5-0.2c-0.8-0.4-1.8-0.6-3-0.6c-2.7,0-4.1,1.8-4.1,5.3c0,3.5,1.3,5.3,4,5.3
			c1.1,0,2.2-0.2,3.2-0.7c0.3-0.2,0.5-0.2,0.6-0.2c0.3,0,0.6,0.3,0.9,0.8c0.3,0.5,0.4,0.9,0.4,1.2c0,0.6-0.6,1.1-1.7,1.5
			c-1.2,0.3-2.3,0.5-3.5,0.5c-2.6,0-4.6-0.7-5.8-2.1C58.1,13.4,57.4,11.2,57.4,8.3z"/>
		<path fill="#141B4D" d="M71.8,16.1c0-0.1,0-0.2,0.1-0.4l5.2-15.1c0.1-0.3,0.6-0.5,1.3-0.5h1.2c0.8,0,1.2,0.2,1.3,0.5l5.2,15.1
			c0,0.2,0.1,0.3,0.1,0.4c0,0.3-0.4,0.5-1.2,0.5h-1c-0.8,0-1.2-0.2-1.3-0.5l-0.9-2.9h-5.5l-0.9,2.9c-0.1,0.3-0.5,0.5-1.1,0.5h-0.9
			C72.3,16.7,71.8,16.5,71.8,16.1z M77.2,10.2h3.5L79.4,6l-0.4-1.5H79c-0.1,0.7-0.3,1.2-0.4,1.5L77.2,10.2z"/>
		<path fill="#141B4D" d="M87.8,15.9v-15c0-0.5,0.5-0.8,1.4-0.8h1c0.8,0,1.3,0.2,1.5,0.6l6.2,9.5V0.9c0-0.5,0.5-0.8,1.4-0.8h0.7
			c0.9,0,1.4,0.3,1.4,0.8v15c0,0.5-0.5,0.8-1.4,0.8h-0.9c-0.8,0-1.3-0.2-1.5-0.6l-6.3-9.6v9.5c0,0.5-0.5,0.8-1.4,0.8h-0.7
			C88.3,16.7,87.8,16.4,87.8,15.9z"/>
		<path fill="#141B4D" d="M104.7,15.7V1.1c0-0.6,0.3-0.9,0.9-0.9h5.3c2.4,0,4.3,0.7,5.6,2.1c1.3,1.4,1.9,3.4,1.9,6.1
			c0,2.6-0.6,4.7-1.9,6.1c-1.3,1.4-3.1,2.1-5.6,2.1h-5.3C105,16.6,104.7,16.3,104.7,15.7z M108.3,13.5h2.6c1.3,0,2.2-0.4,2.8-1.3
			c0.6-0.9,1-2.1,1-3.8c0-1.7-0.3-2.9-1-3.8c-0.6-0.9-1.6-1.3-2.8-1.3h-2.6V13.5z"/>
		<path fill="#141B4D" d="M120.9,15.9v-15c0-0.5,0.5-0.8,1.4-0.8h0.8c0.9,0,1.4,0.3,1.4,0.8v15c0,0.5-0.5,0.8-1.4,0.8h-0.8
			C121.3,16.7,120.9,16.4,120.9,15.9z"/>
		<path fill="#141B4D" d="M127.1,8.3c0-5.6,2.6-8.3,7.8-8.3c1.1,0,2.2,0.2,3.3,0.5c1.1,0.3,1.6,0.7,1.6,1.2c0,0.3-0.2,0.8-0.6,1.4
			c-0.4,0.6-0.7,0.8-1,0.8c0,0-0.2-0.1-0.5-0.2c-0.8-0.4-1.8-0.6-3-0.6c-2.7,0-4.1,1.8-4.1,5.3c0,3.5,1.3,5.3,4,5.3
			c1.1,0,2.2-0.2,3.2-0.7c0.3-0.2,0.5-0.2,0.6-0.2c0.3,0,0.6,0.3,0.9,0.8c0.3,0.5,0.4,0.9,0.4,1.2c0,0.6-0.6,1.1-1.7,1.5
			c-1.2,0.3-2.3,0.5-3.5,0.5c-2.6,0-4.6-0.7-5.8-2.1C127.7,13.4,127.1,11.2,127.1,8.3z"/>
		<path fill="#141B4D" d="M60.2,37.2V22.4c0-0.6,0.3-0.9,0.9-0.9H69c0.5,0,0.7,0.4,0.7,1.2v0.7c0,0.8-0.2,1.2-0.7,1.2h-5.2V28h5
			c0.5,0,0.7,0.4,0.7,1.2v0.7c0,0.8-0.2,1.2-0.7,1.2h-5v6.1c0,0.5-0.5,0.8-1.4,0.8h-0.8C60.7,38,60.2,37.7,60.2,37.2z"/>
		<path fill="#141B4D" d="M72.5,32.4V22.2c0-0.5,0.5-0.8,1.4-0.8h0.8c0.9,0,1.4,0.3,1.4,0.8v10c0,0.8,0.3,1.5,0.9,2
			c0.6,0.5,1.4,0.8,2.3,0.8c0.9,0,1.7-0.3,2.3-0.8c0.6-0.5,0.9-1.2,0.9-2v-10c0-0.5,0.5-0.8,1.4-0.8h0.8c0.9,0,1.4,0.3,1.4,0.8v10.2
			c0,1.8-0.6,3.2-1.8,4.2c-1.2,1-2.9,1.5-5,1.5c-2.2,0-3.8-0.5-5-1.5C73.1,35.6,72.5,34.2,72.5,32.4z"/>
		<path fill="#141B4D" d="M88.4,36.1c0-0.4,0.2-0.8,0.5-1.3c0.4-0.5,0.7-0.8,0.9-0.8c0.1,0,0.3,0.1,0.6,0.3c1,0.5,1.9,0.8,2.8,0.8
			c1.5,0,2.2-0.6,2.2-1.7c0-0.5-0.2-0.9-0.7-1.3c-0.5-0.3-1-0.6-1.7-0.9c-0.7-0.3-1.3-0.6-2-0.9c-0.7-0.3-1.2-0.9-1.7-1.6
			s-0.7-1.6-0.7-2.6c0-1.1,0.3-2,0.8-2.7c1-1.4,2.6-2,4.7-2c1.2,0,2.2,0.2,3,0.5c0.8,0.3,1.2,0.7,1.2,1.1c0,0.3-0.1,0.8-0.4,1.3
			c-0.3,0.5-0.6,0.8-0.8,0.8c-0.1,0-0.2-0.1-0.4-0.2c-0.6-0.3-1.3-0.4-2.2-0.4c-0.8,0-1.4,0.1-1.7,0.4c-0.3,0.3-0.5,0.6-0.5,1.1
			c0,0.4,0.2,0.8,0.7,1.1c0.5,0.3,1,0.6,1.7,0.9c0.7,0.3,1.3,0.5,2,0.9c0.7,0.3,1.2,0.9,1.7,1.6c0.5,0.7,0.7,1.5,0.7,2.5
			c0,1-0.2,1.8-0.5,2.5c-0.3,0.7-0.7,1.2-1.3,1.6c-1,0.8-2.3,1.1-3.8,1.1c-1.5,0-2.8-0.2-3.8-0.7C88.9,37,88.4,36.5,88.4,36.1z"/>
		<path fill="#141B4D" d="M101.9,37.2v-15c0-0.5,0.5-0.8,1.4-0.8h0.8c0.9,0,1.4,0.3,1.4,0.8v15c0,0.5-0.5,0.8-1.4,0.8h-0.8
			C102.4,38,101.9,37.7,101.9,37.2z"/>
		<path fill="#141B4D" d="M110,35.9c-1.3-1.4-1.9-3.5-1.9-6.2c0-2.7,0.6-4.8,1.9-6.2c1.3-1.4,3.2-2.2,5.6-2.2c2.4,0,4.3,0.7,5.6,2.2
			c1.3,1.4,1.9,3.5,1.9,6.2c0,2.7-0.6,4.8-1.9,6.2s-3.1,2.2-5.6,2.2C113.2,38.1,111.3,37.4,110,35.9z M112.8,33.7
			c0.6,0.9,1.6,1.4,2.9,1.4c1.3,0,2.2-0.5,2.8-1.4c0.6-0.9,1-2.2,1-4c0-1.7-0.3-3.1-1-4c-0.6-0.9-1.6-1.3-2.8-1.3
			c-1.3,0-2.2,0.4-2.9,1.3c-0.6,0.9-1,2.2-1,4C111.8,31.5,112.1,32.8,112.8,33.7z"/>
		<path fill="#141B4D" d="M125.3,37.2v-15c0-0.5,0.5-0.8,1.4-0.8h1c0.8,0,1.3,0.2,1.5,0.6l6.2,9.5v-9.4c0-0.5,0.5-0.8,1.4-0.8h0.7
			c0.9,0,1.4,0.3,1.4,0.8v15c0,0.5-0.5,0.8-1.4,0.8h-0.9c-0.8,0-1.3-0.2-1.5-0.6l-6.3-9.6v9.5c0,0.5-0.5,0.8-1.4,0.8h-0.7
			C125.7,38,125.3,37.7,125.3,37.2z"/>
	</g>
	<g>
		<path fill="#5268C2" d="M36,20.5c-0.1,0-0.2,0-0.2,0.1c-0.1,0-0.1,0-0.2,0.1c-0.1,0-0.1,0.1-0.2,0.1c-0.1,0-0.1,0.1-0.2,0.1
			l-5.8,4.9c-0.2,0.2-0.3,0.3-0.4,0.6c-0.1,0.2-0.2,0.5-0.2,0.7c0,0.3,0,0.5,0.1,0.8c0.1,0.3,0.2,0.5,0.4,0.8l6.6,9.5
			c0.2,0.3,0.5,0.6,0.7,0.8c0.3,0.2,0.6,0.5,0.9,0.6c0.3,0.2,0.7,0.3,1,0.4c0.3,0.1,0.7,0.1,1,0.1l10.1-1.3c0,0,0.1,0,0.1,0
			c0,0,0.1,0,0.1,0c0,0,0.1,0,0.1,0c0,0,0.1,0,0.1,0c0.2-0.1,0.4-0.2,0.6-0.3c0.2-0.1,0.3-0.3,0.4-0.5c0.1-0.2,0.2-0.4,0.2-0.6
			c0-0.2,0-0.5,0-0.7l-2-8.8c0-0.2-0.1-0.5-0.3-0.7c-0.1-0.2-0.3-0.5-0.5-0.7c-0.2-0.2-0.4-0.4-0.7-0.6c-0.2-0.2-0.5-0.3-0.7-0.5
			L38,20.8c-0.2-0.1-0.3-0.1-0.5-0.2c-0.2-0.1-0.3-0.1-0.5-0.1c-0.2,0-0.3,0-0.5,0C36.3,20.4,36.1,20.4,36,20.5"/>
		<path fill="#5268C2" d="M10.4,24.7c-0.2,0-0.5,0.1-0.7,0.2c-0.2,0.1-0.4,0.2-0.6,0.3c-0.2,0.1-0.4,0.2-0.5,0.3
			c-0.2,0.1-0.3,0.3-0.4,0.4l-7.4,9.6c-0.2,0.3-0.4,0.7-0.5,1C0,36.8,0,37.2,0,37.6c0,0.4,0.1,0.8,0.2,1.1c0.1,0.4,0.3,0.7,0.6,1
			L11,50.1c0.3,0.3,0.6,0.5,0.9,0.7c0.4,0.2,0.7,0.3,1.1,0.4c0.4,0.1,0.8,0.1,1.2,0.1c0.4,0,0.8-0.1,1.2-0.2c0.1,0,0.1,0,0.2-0.1
			c0,0,0.1,0,0.1-0.1c0,0,0.1,0,0.1-0.1c0,0,0.1,0,0.1-0.1l12.1-7c0.3-0.2,0.6-0.4,0.8-0.7c0.2-0.3,0.4-0.6,0.5-0.9
			c0.1-0.3,0.2-0.7,0.2-1.1c0-0.4,0-0.7-0.1-1.1L26,29.2c-0.1-0.3-0.2-0.5-0.4-0.8c-0.2-0.2-0.4-0.5-0.7-0.7
			c-0.3-0.2-0.5-0.4-0.8-0.5c-0.3-0.1-0.6-0.3-0.9-0.3l-11.4-2.2c-0.1,0-0.2,0-0.3,0c-0.1,0-0.2,0-0.4,0c-0.1,0-0.2,0-0.4,0
			C10.6,24.7,10.5,24.7,10.4,24.7"/>
		<path fill="#5268C2" d="M22.3,9.5L13.7,10c-0.3,0-0.5,0.1-0.7,0.1c-0.2,0.1-0.4,0.2-0.6,0.3c-0.2,0.1-0.3,0.3-0.4,0.4
			c-0.1,0.2-0.2,0.3-0.2,0.5l-0.5,7c0,0.2,0,0.4,0.1,0.7c0.1,0.2,0.2,0.5,0.4,0.7c0.2,0.2,0.4,0.4,0.7,0.6c0.3,0.2,0.5,0.3,0.8,0.4
			l10.5,3.6c0.1,0,0.3,0.1,0.4,0.1c0.2,0,0.3,0,0.5,0.1c0.2,0,0.3,0,0.5,0c0.2,0,0.3,0,0.4-0.1c0.1,0,0.3-0.1,0.4-0.1
			c0.1,0,0.3-0.1,0.4-0.2c0.1-0.1,0.2-0.1,0.3-0.2c0.1-0.1,0.2-0.2,0.3-0.2l4.6-5.6c0.1-0.1,0.2-0.3,0.2-0.5c0-0.2,0-0.4,0-0.6
			c0-0.2-0.1-0.4-0.2-0.6c-0.1-0.2-0.3-0.4-0.4-0.5L25,10.4c-0.2-0.1-0.4-0.3-0.6-0.4c-0.2-0.1-0.5-0.2-0.7-0.3
			c-0.2-0.1-0.5-0.2-0.8-0.2C22.8,9.5,22.5,9.4,22.3,9.5"/>
	</g>
</g>
</svg>
