<?xml version="1.0" encoding="utf-8"?>
<!-- Generator: Adobe Illustrator 18.0.0, SVG Export Plug-In . SVG Version: 6.00 Build 0)  -->
<!DOCTYPE svg PUBLIC "-//W3C//DTD SVG 1.1//EN" "http://www.w3.org/Graphics/SVG/1.1/DTD/svg11.dtd">
<svg version="1.1" id="Layer_1" xmlns="http://www.w3.org/2000/svg" xmlns:xlink="http://www.w3.org/1999/xlink" x="0px" y="0px"
	 viewBox="0 0 128 128" enable-background="new 0 0 128 128" xml:space="preserve">
<path id="help-3-icon" d="M64,12.4c28.5,0,51.6,23.1,51.6,51.6c0,28.5-23.1,51.6-51.6,51.6c-28.5,0-51.6-23.1-51.6-51.6
	C12.4,35.5,35.5,12.4,64,12.4 M64,0C28.7,0,0,28.7,0,64s28.7,64,64,64s64-28.7,64-64S99.3,0,64,0L64,0z M64.6,102.4
	c-4.5,0-8.2-3.7-8.2-8.2c0-4.5,3.7-8.2,8.2-8.2c4.5,0,8.2,3.7,8.2,8.2C72.8,98.7,69.1,102.4,64.6,102.4z M71.1,78.2v1.5
	c0,0-12.3,0-13.5,0v-1.5c0-4.2,0.6-9.5,5.4-14.2c4.8-4.6,10.9-8.5,10.9-14.3c0-6.4-4.5-9.8-10.1-9.8c-9.4,0-10,9.7-10.2,11.8H40.5
	c0.3-10.1,4.6-24.3,23.4-24.3c16.3,0,23.6,10.9,23.6,21.1C87.5,64.9,71.1,67.7,71.1,78.2z"/>
</svg>
