<?xml version="1.0" encoding="utf-8"?>
<!-- Generator: Adobe Illustrator 18.0.0, SVG Export Plug-In . SVG Version: 6.00 Build 0)  -->
<!DOCTYPE svg PUBLIC "-//W3C//DTD SVG 1.1//EN" "http://www.w3.org/Graphics/SVG/1.1/DTD/svg11.dtd">
<svg version="1.1" id="Layer_1" xmlns="http://www.w3.org/2000/svg" xmlns:xlink="http://www.w3.org/1999/xlink" x="0px" y="0px"
	 viewBox="0 0 128 128" enable-background="new 0 0 128 128" xml:space="preserve">
<path id="help-5-icon" d="M64,4.8C30.2,4.8,0,27.5,0,58.7c0,11,3.9,21.9,10.9,30.3c0.3,9.9-5.5,24-10.6,34.3
	c13.9-2.5,33.6-8.1,42.6-13.7C92.1,121.7,128,91.2,128,58.7C128,27.4,97.6,4.8,64,4.8z M65.8,91.1c-3.8,0-6.9-3.1-6.9-6.9
	c0-3.8,3.1-6.9,6.9-6.9c3.8,0,6.9,3.1,6.9,6.9C72.7,88,69.6,91.1,65.8,91.1z M71.2,70.7v1.2c0,0-10.3,0-11.4,0v-1.2
	c0-3.5,0.5-8,4.6-11.9c4.1-3.9,9.2-7.2,9.2-12c0-5.4-3.8-8.3-8.5-8.3c-7.9,0-8.4,8.2-8.6,10H45.4C45.7,39.9,49.3,28,65.2,28
	C78.9,28,85,37.1,85,45.8C85,59.5,71.2,61.9,71.2,70.7z"/>
</svg>
