<?xml version="1.0" encoding="utf-8"?>
<!-- Generator: Adobe Illustrator 18.0.0, SVG Export Plug-In . SVG Version: 6.00 Build 0)  -->
<!DOCTYPE svg PUBLIC "-//W3C//DTD SVG 1.1//EN" "http://www.w3.org/Graphics/SVG/1.1/DTD/svg11.dtd">
<svg version="1.1" id="Layer_1" xmlns="http://www.w3.org/2000/svg" xmlns:xlink="http://www.w3.org/1999/xlink" x="0px" y="0px"
	 viewBox="0 0 128 128" enable-background="new 0 0 128 128" xml:space="preserve">
<path d="M64,0C28.7,0,0,28.7,0,64s28.7,64,64,64s64-28.7,64-64S99.3,0,64,0z M68.6,11.7c25.3,2.2,45.6,22.4,47.8,47.8h-13.8
	c-2.1-17.8-16.2-31.9-34-34C68.6,25.5,68.6,11.7,68.6,11.7z M59.4,11.7v13.8c-17.8,2.1-31.9,16.2-34,34H11.7
	C13.9,34.1,34.1,13.9,59.4,11.7z M59.4,116.3c-25.3-2.2-45.6-22.4-47.8-47.8h13.8c2.1,17.8,16.2,31.9,34,34V116.3L59.4,116.3z
	 M66.8,82.3h-5.5c-1,0-1.8,0.8-1.8,1.8V91C48,89.1,38.9,80,37,68.6h6.9c1,0,1.8-0.8,1.8-1.8v-5.5c0-1-0.8-1.8-1.8-1.8H37
	C38.9,48,48,38.9,59.4,37v6.9c0,1,0.8,1.8,1.8,1.8h5.5c1,0,1.8-0.8,1.8-1.8V37C80,38.9,89.1,48,91,59.4l0,0h-6.9
	c-1,0-1.8,0.8-1.8,1.8v5.5c0,1,0.8,1.8,1.8,1.8H91l0,0C89.1,80,80,89.1,68.6,91v-6.9C68.6,83.1,67.8,82.3,66.8,82.3z M68.6,116.3
	v-13.8c17.8-2.1,31.9-16.2,34-34h13.8C114.1,93.9,93.9,114.1,68.6,116.3z M64,73.1c-5,0-9.1-4.1-9.1-9.1s4.1-9.1,9.1-9.1
	s9.1,4.1,9.1,9.1S69,73.1,64,73.1z"/>
</svg>
