<?xml version="1.0" encoding="utf-8"?>
<!-- Generator: Adobe Illustrator 18.0.0, SVG Export Plug-In . SVG Version: 6.00 Build 0)  -->
<!DOCTYPE svg PUBLIC "-//W3C//DTD SVG 1.1//EN" "http://www.w3.org/Graphics/SVG/1.1/DTD/svg11.dtd">
<svg version="1.1" id="Layer_1" xmlns="http://www.w3.org/2000/svg" xmlns:xlink="http://www.w3.org/1999/xlink" x="0px" y="0px"
	 viewBox="0 0 128 128" enable-background="new 0 0 128 128" xml:space="preserve">
<g>
	<path d="M128,110.3c0,0.4-0.2,0.7-0.4,0.9l-15.5,12.1c-0.3,0.3-0.8,0.3-1.1,0.1c-0.4-0.2-0.6-0.6-0.6-1v-7.7H13.2
		c-2.4,0-4.4-2-4.4-4.4V22.1H1.1c-0.4,0-0.8-0.2-1-0.6c-0.2-0.4-0.2-0.8,0.1-1.1L12.3,4.8c0.2-0.3,0.6-0.4,0.9-0.4
		c0.4,0,0.7,0.2,0.9,0.4l12.1,15.5c0.3,0.3,0.3,0.8,0.1,1.1c-0.2,0.4-0.6,0.6-1,0.6h-7.7v83.9h92.7v-7.7c0-0.4,0.2-0.8,0.6-1
		c0.4-0.2,0.8-0.2,1.1,0.1l15.5,12.1C127.8,109.6,128,110,128,110.3z M68,73.7l-15,19L35.3,71.1L22.1,83.9v17.7h83.9V61.8L83.9,77.7
		L68,73.7z M83.9,48.6l-17.7-4.4L53,61.8L35.3,39.7L22.1,53V75l13.2-13.2L53,83l13.2-16.8l17.7,4l22.1-16.3v-23L83.9,48.6z"/>
</g>
</svg>
