<?xml version="1.0" encoding="utf-8"?>
<!-- Generator: Adobe Illustrator 18.0.0, SVG Export Plug-In . SVG Version: 6.00 Build 0)  -->
<!DOCTYPE svg PUBLIC "-//W3C//DTD SVG 1.1//EN" "http://www.w3.org/Graphics/SVG/1.1/DTD/svg11.dtd">
<svg version="1.1" id="Layer_1" xmlns="http://www.w3.org/2000/svg" xmlns:xlink="http://www.w3.org/1999/xlink" x="0px" y="0px"
	 viewBox="0 0 128 128" enable-background="new 0 0 128 128" xml:space="preserve">
<g>
	<path d="M128,116.6v6.2c0,1.7-1.4,3.1-3.1,3.1H3.1c-1.7,0-3.1-1.4-3.1-3.1v-6.2c0-1.7,1.4-3.1,3.1-3.1h121.8
		C126.6,113.5,128,114.9,128,116.6z M8.3,100.1v6.2c0,1.7,1.4,3.1,3.1,3.1h105.3c1.7,0,3.1-1.4,3.1-3.1v-6.2c0-1.7-1.4-3.1-3.1-3.1
		H11.4C9.6,97,8.3,98.4,8.3,100.1z M17.6,92.9H36c0.6,0,1.1-0.5,1.1-1.1V59.9c2.3,0,4.1-1.8,4.1-4.1v-3c0-0.6-0.5-1.1-1.1-1.1h-3
		H16.5h-3c-0.6,0-1.1,0.5-1.1,1.1v3c0,2.3,1.8,4.1,4.1,4.1v31.9C16.5,92.4,17,92.9,17.6,92.9z M54.8,92.9h18.4
		c0.6,0,1.1-0.5,1.1-1.1V59.9c2.3,0,4.1-1.8,4.1-4.1v-3c0-0.6-0.5-1.1-1.1-1.1h-3H53.7h-3c-0.6,0-1.1,0.5-1.1,1.1v3
		c0,2.3,1.8,4.1,4.1,4.1v31.9C53.7,92.4,54.2,92.9,54.8,92.9z M92,92.9h18.4c0.6,0,1.1-0.5,1.1-1.1V59.9c2.3,0,4.1-1.8,4.1-4.1v-3
		c0-0.6-0.5-1.1-1.1-1.1h-3H90.8h-3c-0.6,0-1.1,0.5-1.1,1.1v3c0,2.3,1.8,4.1,4.1,4.1v31.9C90.8,92.4,91.3,92.9,92,92.9z M128,39.2
		v5.2c0,1.7-1.3,3.1-3,3.1H3c-1.7,0-3-1.4-3-3.1v-5.2c0-1.1,0.6-2.2,1.6-2.7l60-33.9c1.5-0.8,3.2-0.8,4.7,0l60,33.9
		C127.4,37,128,38.1,128,39.2z M71,28.9c0-3.9-3.1-7-7-7s-7,3.1-7,7s3.1,7,7,7S71,32.8,71,28.9z"/>
</g>
</svg>
