<?xml version="1.0" encoding="utf-8"?>
<!-- Generator: Adobe Illustrator 18.0.0, SVG Export Plug-In . SVG Version: 6.00 Build 0)  -->
<!DOCTYPE svg PUBLIC "-//W3C//DTD SVG 1.1//EN" "http://www.w3.org/Graphics/SVG/1.1/DTD/svg11.dtd">
<svg version="1.1" id="Layer_1" xmlns="http://www.w3.org/2000/svg" xmlns:xlink="http://www.w3.org/1999/xlink" x="0px" y="0px"
	 viewBox="0 0 128 128" enable-background="new 0 0 128 128" xml:space="preserve">
<g>
	<path d="M126.4,48.9c1-0.6,1.6-1.7,1.6-2.9c0-1.2-0.7-2.3-1.7-2.8l-0.6-0.3L98.1,59.4V53l28.3-16.9c1-0.6,1.6-1.7,1.6-2.9
		c0-1.2-0.7-2.3-1.7-2.8L85,7.2c-1.9-1.1-4.1-1-6,0.1L1.6,53.5c-1,0.6-1.6,1.7-1.6,2.9c0,1.2,0.6,2.3,1.7,2.8L43,82.4
		c1.9,1.1,4.1,1,6-0.1l27.8-16.6v6.4L49,88.7c-1.8,1.1-4.1,1.1-6,0.1l-40.8-23l-0.7,0.4c-1,0.6-1.6,1.7-1.6,2.9
		c0,1.2,0.6,2.3,1.7,2.8L43,95.2c1.9,1.1,4.1,1,6-0.1l27.8-16.6V85L49,101.5c-1.8,1.1-4.1,1.1-6,0.1l-40.8-23l-0.7,0.4
		c-1,0.6-1.6,1.7-1.6,2.9c0,1.2,0.6,2.3,1.7,2.8L43,108c1.9,1.1,4.1,1,6-0.1l27.8-16.6v6.4L49,114.3c-1.8,1.1-4.1,1.1-6,0.1
		l-40.8-23l-0.7,0.4c-1,0.6-1.6,1.7-1.6,2.9c0,1.2,0.6,2.3,1.7,2.8L43,120.8c1.9,1.1,4.1,1,6-0.1l77.4-46.2c1-0.6,1.6-1.7,1.6-2.9
		c0-1.2-0.7-2.3-1.7-2.8l-0.6-0.3L98.1,85v-6.4l28.3-16.9c1-0.6,1.6-1.7,1.6-2.9c0-1.2-0.7-2.3-1.7-2.8l-0.6-0.3L98.1,72.2v-6.4
		L126.4,48.9z M82.1,20.2c3.6,0,6.9-0.8,9.3-2.1l17,9.6c-0.8,1.8-1.3,3.9-1.3,6c0,2.1,0.4,4,1.2,5.8l-13.9,8.3L57.9,27.4l15.3-9.1
		C75.6,19.4,78.7,20.2,82.1,20.2z M45.8,69.9c-3.4,0-6.5,0.7-8.9,1.9l-17.1-9.7c0.6-1.7,1-3.4,1-5.3c0-2.3-0.6-4.5-1.5-6.5L36.6,40
		l36.5,20.5L54.4,71.7C52.2,70.6,49.2,69.9,45.8,69.9z M43.8,57.7c0,1.8-2,3.2-4.5,3.2c-2.5,0-4.5-1.4-4.5-3.2c0-1.8,2-3.2,4.5-3.2
		C41.7,54.5,43.8,56,43.8,57.7z M83.4,29.7c0-1.8,2-3.2,4.5-3.2c2.5,0,4.5,1.4,4.5,3.2c0,1.8-2,3.2-4.5,3.2
		C85.4,32.9,83.4,31.4,83.4,29.7z"/>
</g>
</svg>
