<?xml version="1.0" encoding="utf-8"?>
<!-- Generator: Adobe Illustrator 18.0.0, SVG Export Plug-In . SVG Version: 6.00 Build 0)  -->
<!DOCTYPE svg PUBLIC "-//W3C//DTD SVG 1.1//EN" "http://www.w3.org/Graphics/SVG/1.1/DTD/svg11.dtd">
<svg version="1.1" id="Layer_1" xmlns="http://www.w3.org/2000/svg" xmlns:xlink="http://www.w3.org/1999/xlink" x="0px" y="0px"
	 viewBox="0 0 128 128" enable-background="new 0 0 128 128" xml:space="preserve">
<g>
	<path d="M36,94c-2.2,0-4-1.8-4-4V78c0-2.2,1.8-4,4-4h4c2.2,0,4,1.8,4,4v12c0,2.2-1.8,4-4,4H36z M100,83.8V90c0,4.4-3.6,8-8,8h-4
		c-4.4,0-8-3.6-8-8v-3.8c-4.9,0.4-10.3,0.6-16,0.6s-11.1-0.2-16-0.6V90c0,4.4-3.6,8-8,8h-4c-4.4,0-8-3.6-8-8v-6.2
		c-6.1-1.1-11.1-2.4-15.1-3.5c-3.4-1-6.4-2.8-8.9-5V106c0,6.6,5.4,12,12,12h96c6.6,0,12-5.4,12-12V75.4c-2.6,2.2-5.5,3.9-8.9,4.9
		C111.1,81.4,106.1,82.7,100,83.8z M128,42v14.5c0,8.9-5.8,16.6-14.3,19.2c-3.8,1.1-8.4,2.3-13.7,3.3V78c0-4.4-3.6-8-8-8h-4
		c-4.4,0-8,3.6-8,8v3.4C75.1,81.8,69.7,82,64,82s-11.1-0.2-16-0.6V78c0-4.4-3.6-8-8-8h-4c-4.4,0-8,3.6-8,8v0.9
		c-5.3-1-9.9-2.1-13.7-3.3C5.8,73.1,0,65.3,0,56.5V42c0-6.6,5.4-12,12-12h16c0-2.2,1.8-4,4-4h4c0-8.8,7.2-16,16-16h24
		c8.8,0,16,7.2,16,16h4c2.2,0,4,1.8,4,4h16C122.6,30,128,35.4,128,42z M48,26v4h32v-4c0-2.2-1.8-4-4-4H52C49.8,22,48,23.8,48,26z
		 M92,94c2.2,0,4-1.8,4-4V78c0-2.2-1.8-4-4-4h-4c-2.2,0-4,1.8-4,4v12c0,2.2,1.8,4,4,4H92z"/>
</g>
</svg>
