<?xml version="1.0" encoding="utf-8"?>
<!-- Generator: Adobe Illustrator 18.0.0, SVG Export Plug-In . SVG Version: 6.00 Build 0)  -->
<!DOCTYPE svg PUBLIC "-//W3C//DTD SVG 1.1//EN" "http://www.w3.org/Graphics/SVG/1.1/DTD/svg11.dtd">
<svg version="1.1" id="Layer_1" xmlns="http://www.w3.org/2000/svg" xmlns:xlink="http://www.w3.org/1999/xlink" x="0px" y="0px"
	 viewBox="0 0 128 128" enable-background="new 0 0 128 128" xml:space="preserve">
<path id="light-bulb-17-icon" d="M75.2,102.9H52.7c-1.6,0-2.9,1.3-2.9,2.9c0,1.6,1.3,2.9,2.9,2.9h22.5c1.6,0,2.9-1.3,2.9-2.9
	C78.1,104.2,76.8,102.9,75.2,102.9z M74.7,112.4H53.2c-1.6,0-2.9,1.3-2.9,2.9s1.3,2.9,2.9,2.9h21.5c1.6,0,2.9-1.3,2.9-2.9
	S76.3,112.4,74.7,112.4z M53.4,121.8c5.6,5.1,6.1,6.2,8.4,6.2H66c2.2,0,2.7-1,8.6-6.2H53.4z M96.5,53.3c0,19.4-16.6,30.2-16.6,45.5
	H48.1c0-15.3-16.6-26.1-16.6-45.5C31.4,11.7,96.5,11.7,96.5,53.3z M68.1,14h-7.8V0h7.8V14z M94.8,7.4L88,3.8l-6.9,12.8l6.9,3.7
	L94.8,7.4z M114.8,26.7l-4.5-6.3l-12.5,8.9l4.5,6.3L114.8,26.7z M116.1,75.8l-14-5.7l-2.9,7.2l14,5.7L116.1,75.8z M120.8,48.3h-15.9
	v7.8h15.9V48.3z M46.9,16.5L40,3.8l-6.9,3.7L40,20.2L46.9,16.5z M30.2,29.3l-12.5-8.9l-4.5,6.3l12.5,8.9L30.2,29.3z M28.9,76.7
	l-3.2-7.1l-14,6.3l3.2,7.1L28.9,76.7z M23.1,48.3H7.2v7.8h15.9V48.3z"/>
</svg>
