<?xml version="1.0" encoding="utf-8"?>
<!-- Generator: Adobe Illustrator 18.0.0, SVG Export Plug-In . SVG Version: 6.00 Build 0)  -->
<!DOCTYPE svg PUBLIC "-//W3C//DTD SVG 1.1//EN" "http://www.w3.org/Graphics/SVG/1.1/DTD/svg11.dtd">
<svg version="1.1" id="Layer_1" xmlns="http://www.w3.org/2000/svg" xmlns:xlink="http://www.w3.org/1999/xlink" x="0px" y="0px"
	 viewBox="0 0 128 128" enable-background="new 0 0 128 128" xml:space="preserve">
<g>
	<path d="M117.8,8.3h-87c-5.6,0-10.2,4.6-10.2,10.2v22.8h99.1v31.1c0,1.1-0.9,1.9-1.9,1.9h-6.3v8.3h6.3c5.6,0,10.2-4.6,10.2-10.2
		V18.5C128,12.8,123.4,8.3,117.8,8.3z M119.7,24.8H28.9v-6.3c0-1.1,0.9-1.9,1.9-1.9h87c1.1,0,1.9,0.9,1.9,1.9V24.8z M97.2,45.4h-87
		C4.6,45.4,0,50,0,55.6v53.9c0,5.6,4.6,10.2,10.2,10.2h87c5.6,0,10.2-4.6,10.2-10.2V55.6C107.4,50,102.8,45.4,97.2,45.4z M90.8,66.1
		h-8.3v-4.1h8.3V66.1z M70.2,61.9h8.3v4.1h-8.3V61.9z M28.9,103.2H16.5v-4.1h12.4V103.2z M28.9,70.4c-0.9,2.5-3.3,4.4-6.2,4.4
		c-3.6,0-6.6-3-6.6-6.6c0-3.6,3-6.6,6.6-6.6c2.9,0,5.3,1.8,6.2,4.4c0.9-2.5,3.3-4.4,6.2-4.4c3.6,0,6.6,3,6.6,6.6
		c0,3.6-3,6.6-6.6,6.6C32.2,74.7,29.8,72.9,28.9,70.4z M49.5,103.2H37.2v-4.1h12.4V103.2z M70.2,103.2H57.8v-4.1h12.4V103.2z
		 M70.2,70.2h8.3v4.1h-8.3V70.2z M90.8,103.2H78.5v-4.1h12.4V103.2z M82.6,74.3v-4.1h8.3v4.1H82.6z"/>
</g>
</svg>
