<?xml version="1.0" encoding="utf-8"?>
<!-- Generator: Adobe Illustrator 18.0.0, SVG Export Plug-In . SVG Version: 6.00 Build 0)  -->
<!DOCTYPE svg PUBLIC "-//W3C//DTD SVG 1.1//EN" "http://www.w3.org/Graphics/SVG/1.1/DTD/svg11.dtd">
<svg version="1.1" id="Layer_1" xmlns="http://www.w3.org/2000/svg" xmlns:xlink="http://www.w3.org/1999/xlink" x="0px" y="0px"
	 viewBox="0 0 128 128" enable-background="new 0 0 128 128" xml:space="preserve">
<g>
	<g>
		<path d="M58.9,35.6c-1.6,0-2.9,1.3-2.9,2.9v46.3c0,1.6,1.3,2.9,2.9,2.9h10.2c1.6,0,2.9-1.3,2.9-2.9V38.6c0-1.6-1.3-2.9-2.9-2.9
			L58.9,35.6L58.9,35.6z M76,62.6v22.2c0,1.6,1.3,2.9,2.9,2.9h10.2c1.6,0,2.9-1.3,2.9-2.9V62.6c0-1.6-1.3-2.9-2.9-2.9H79
			C77.3,59.7,76,61,76,62.6z M64,17.8c3.3,0,6.6,0.4,9.7,1l5.1-17.1C74,0.7,69.1,0,64,0C51.2,0,39.2,3.8,29.2,10.3l10.7,14.4
			C46.9,20.4,55.1,17.8,64,17.8z M125.8,47.6l-17,5.6c0.8,3.5,1.3,7.1,1.3,10.8c0,14.2-6.4,26.8-16.4,35.3l10.5,14.4
			C118.7,102,128,84.1,128,64C128,58.3,127.2,52.9,125.8,47.6z M38.8,51.7c-1.6,0-2.9,1.3-2.9,2.9v30.3c0,1.6,1.3,2.9,2.9,2.9H49
			c1.6,0,2.9-1.3,2.9-2.9V54.6c0-1.6-1.3-2.9-2.9-2.9C49,51.7,38.8,51.7,38.8,51.7z M64,110.2c-25.5,0-46.2-20.7-46.2-46.2
			c0-14.2,6.4-26.8,16.5-35.3L23.7,14.3C9.2,26.1,0,44,0,64c0,35.3,28.7,64,64,64c12.8,0,24.7-3.8,34.7-10.3l-10.5-14.4
			C81.2,107.6,72.9,110.2,64,110.2z M106.8,46.7l16.9-5.6C117,23.7,103,10,85.3,3.7l-5.1,17.1C92.3,25.4,102,34.8,106.8,46.7z"/>
	</g>
</g>
</svg>
