<?xml version="1.0" encoding="utf-8"?>
<!-- Generator: Adobe Illustrator 18.0.0, SVG Export Plug-In . SVG Version: 6.00 Build 0)  -->
<!DOCTYPE svg PUBLIC "-//W3C//DTD SVG 1.1//EN" "http://www.w3.org/Graphics/SVG/1.1/DTD/svg11.dtd">
<svg version="1.1" id="Layer_1" xmlns="http://www.w3.org/2000/svg" xmlns:xlink="http://www.w3.org/1999/xlink" x="0px" y="0px"
	 viewBox="0 0 128 128" enable-background="new 0 0 128 128" xml:space="preserve">
<path d="M89.5,12.8h-8.6C80.9,5.7,75.1,0,68,0S55.1,5.7,55.1,12.8h-8.6c-2.4,0-4.3,1.9-4.3,4.3v12.8c0,2.4,1.9,4.3,4.3,4.3h43.1
	c2.4,0,4.3-1.9,4.3-4.3V17.1C93.8,14.7,91.9,12.8,89.5,12.8z M68,17.5c-2.6,0-4.7-2.1-4.7-4.7s2.1-4.7,4.7-4.7
	c2.6,0,4.7,2.1,4.7,4.7S70.6,17.5,68,17.5z M98.1,59c0,0.4-0.3,0.8-0.8,0.8H73.1c-0.4,0-0.8-0.3-0.8-0.8v-7c0-0.4,0.3-0.8,0.8-0.8
	h24.3c0.4,0,0.8,0.3,0.8,0.8L98.1,59L98.1,59z M98.1,80.3c0,0.4-0.3,0.8-0.8,0.8H73.1c-0.4,0-0.8-0.3-0.8-0.8v-7
	c0-0.4,0.3-0.8,0.8-0.8h24.3c0.4,0,0.8,0.3,0.8,0.8L98.1,80.3L98.1,80.3z M98.1,101.6c0,0.4-0.3,0.8-0.8,0.8H73.1
	c-0.4,0-0.8-0.3-0.8-0.8v-7c0-0.4,0.3-0.8,0.8-0.8h24.3c0.4,0,0.8,0.3,0.8,0.8L98.1,101.6L98.1,101.6z M50.9,63
	c-0.5,0.6-1.3,1-2.1,1s-1.6-0.3-2.1-0.9l-8.6-12.2c-0.5-0.6-0.4-1.4,0.2-1.8l1.9-1.6c0.6-0.5,1.4-0.4,1.9,0.2l6.5,6.5l10.6-10.9
	c0.2-0.3,0.5-0.5,0.9-0.5s0.7,0.1,1,0.3l2,1.5c0.6,0.4,0.7,1.3,0.2,1.8L50.9,63z M50.9,84.3c-0.5,0.6-1.3,1-2.1,1s-1.6-0.3-2.1-0.9
	l-8.6-12.2c-0.5-0.5-0.4-1.4,0.2-1.8l1.9-1.6c0.6-0.5,1.4-0.4,1.9,0.2l6.5,6.5l10.6-10.9c0.2-0.3,0.5-0.5,0.9-0.5s0.7,0.1,1,0.3
	l2,1.5c0.6,0.4,0.7,1.3,0.2,1.8L50.9,84.3z M50.9,105.7c-0.5,0.6-1.3,1-2.1,1s-1.6-0.3-2.1-0.9l-8.6-12.2c-0.5-0.6-0.4-1.4,0.2-1.8
	l1.9-1.6c0.6-0.5,1.4-0.4,1.9,0.2l6.5,6.5L59.2,86c0.2-0.3,0.5-0.4,0.9-0.5c0.4,0,0.7,0.1,1,0.3l2,1.5c0.6,0.4,0.7,1.3,0.2,1.8
	L50.9,105.7z M115.4,25.6v93.9c0,4.7-3.9,8.5-8.6,8.5H29.2c-4.8,0-8.6-3.8-8.6-8.5V25.6c0-4.7,3.9-8.5,8.6-8.5h8.6v12.8h-7.3
	c-0.7,0-1.3,0.6-1.3,1.3v82.7c0,0.7,0.6,1.3,1.3,1.3h74.8c0.7,0,1.3-0.6,1.3-1.3V31.2c0-0.7-0.6-1.3-1.3-1.3H98V17.1h8.6
	C111.5,17.1,115.4,20.9,115.4,25.6z"/>
</svg>
