<?xml version="1.0" encoding="utf-8"?>
<!-- Generator: Adobe Illustrator 18.0.0, SVG Export Plug-In . SVG Version: 6.00 Build 0)  -->
<!DOCTYPE svg PUBLIC "-//W3C//DTD SVG 1.1//EN" "http://www.w3.org/Graphics/SVG/1.1/DTD/svg11.dtd">
<svg version="1.1" id="Layer_1" xmlns="http://www.w3.org/2000/svg" xmlns:xlink="http://www.w3.org/1999/xlink" x="0px" y="0px"
	 viewBox="0 0 128 128" enable-background="new 0 0 128 128" xml:space="preserve">
<g>
	<path d="M0,66.1c0-3.5,8.6-6.4,19.2-6.4s19.2,2.9,19.2,6.4s-8.6,6.4-19.2,6.4S0,69.7,0,66.1z M0,78.9v4.3c0,3.3,7.5,6,17.1,6.3V87
		c0-0.6,0.1-1.2,0.3-1.8C7.6,85,0,82.3,0,78.9z M38.4,74.7v-4.3c0,3.5-8.6,6.4-19.2,6.4S0,73.9,0,70.4v4.3c0,3.5,8.6,6.4,19.2,6.4
		c0.4,0,0.8,0,1.2,0c3.9-2.9,10.6-4.3,17.1-4.6C38,75.9,38.4,75.3,38.4,74.7z M0,104.5v4.3c0,3.3,7.5,6,17.1,6.3v-4.3
		C7.5,110.5,0,107.8,0,104.5z M0,96v4.3c0,3.3,7.5,6,17.1,6.3v-4.3C7.5,102,0,99.3,0,96z M0,87.5v4.3c0,3.3,7.5,6,17.1,6.3v-4.3
		C7.5,93.4,0,90.8,0,87.5z M88.2,84.6l2.6-2.6c0.9-0.9,1-2.3,0.2-3.3l-13-16.5l-3.2-38.6c-0.1-1.3-1.2-2.3-2.5-2.3h-3.3
		c-1.3,0-2.4,1-2.5,2.3l-3.3,40.9c-0.2,2.1,0.7,4.2,2.5,5.5l19.2,14.8C85.9,85.6,87.3,85.5,88.2,84.6z M59.7,96v-4.3
		c0,3.5-8.6,6.4-19.2,6.4s-19.2-2.9-19.2-6.4V96c0,3.5,8.6,6.4,19.2,6.4c0.4,0,0.8,0,1.2,0c3.9-2.9,10.6-4.3,17.1-4.6
		C59.4,97.2,59.7,96.6,59.7,96z M21.3,87.5c0,3.5,8.6,6.4,19.2,6.4s19.2-2.9,19.2-6.4s-8.6-6.4-19.2-6.4S21.3,83.9,21.3,87.5z
		 M21.3,108.8v4.3c0,3.3,7.5,6,17.1,6.3v-4.3C28.8,114.8,21.3,112.1,21.3,108.8z M21.3,100.3v4.3c0,3.3,7.5,6,17.1,6.3v-2.5
		c0-0.6,0.1-1.2,0.3-1.8C29,106.3,21.3,103.6,21.3,100.3z M70.4,4.3C41,4.3,16.7,26.4,13.3,54.9c2-0.2,4-0.3,5.9-0.3
		c2.2,0,4.4,0.1,6.6,0.4c3.3-21.7,22.1-38.3,44.6-38.3c24.9,0,45.2,20.3,45.2,45.2c0,19.7-12.7,36.5-30.3,42.6v12.9
		c24.6-6.6,42.7-28.9,42.7-55.6C128,30.1,102.2,4.3,70.4,4.3z M61.9,102.4c-10.6,0-19.2,2.9-19.2,6.4s8.6,6.4,19.2,6.4
		s19.2-2.9,19.2-6.4S72.5,102.4,61.9,102.4z M61.9,119.5c-10.6,0-19.2-2.9-19.2-6.4v4.3c0,3.5,8.6,6.4,19.2,6.4s19.2-2.9,19.2-6.4
		v-4.3C81.1,116.6,72.5,119.5,61.9,119.5z"/>
</g>
</svg>
