<?xml version="1.0" encoding="utf-8"?>
<!-- Generator: Adobe Illustrator 18.0.0, SVG Export Plug-In . SVG Version: 6.00 Build 0)  -->
<!DOCTYPE svg PUBLIC "-//W3C//DTD SVG 1.1//EN" "http://www.w3.org/Graphics/SVG/1.1/DTD/svg11.dtd">
<svg version="1.1" id="Layer_1" xmlns="http://www.w3.org/2000/svg" xmlns:xlink="http://www.w3.org/1999/xlink" x="0px" y="0px"
	 viewBox="0 0 128 128" enable-background="new 0 0 128 128" xml:space="preserve">
<g>
	<path d="M0,32v-6.4c0,5.9,13.4,10.7,29.9,10.7s29.9-4.8,29.9-10.7V32c0,5.9-13.4,10.7-29.9,10.7S0,37.9,0,32z M29.9,29.9
		c16.5,0,29.9-4.8,29.9-10.7S46.4,8.5,29.9,8.5S0,13.3,0,19.2S13.4,29.9,29.9,29.9z M29.9,55.5c16.5,0,29.9-4.8,29.9-10.7v-6.4
		c0,5.9-13.4,10.7-29.9,10.7S0,44.3,0,38.4v6.4C0,50.7,13.4,55.5,29.9,55.5z M29.9,93.9v-6.4C13.4,87.5,0,82.7,0,76.8v6.4
		C0,89.1,13.4,93.9,29.9,93.9z M29.9,68.3c16.5,0,29.9-4.8,29.9-10.7v-6.4c0,5.9-13.4,10.7-29.9,10.7S0,57.1,0,51.2v6.4
		C0,63.5,13.4,68.3,29.9,68.3z M29.9,104.5v-4.3C13.4,100.3,0,95.5,0,89.6V96c0,5.9,13.4,10.7,29.9,10.7
		C29.9,106.1,29.9,105.3,29.9,104.5z M29.9,81.1C29.9,81.1,29.9,81.1,29.9,81.1c0.4-2.5,1.7-4.7,3.8-6.5c-1.3,0.1-2.5,0.1-3.8,0.1
		C13.4,74.7,0,69.9,0,64v6.4C0,76.3,13.4,81.1,29.9,81.1z M98.1,100.3c0,2.6,0,4.8,0,6.4c16.5,0,29.9-4.8,29.9-10.7v-6.4
		C128,95.5,114.6,100.3,98.1,100.3z M98.1,55.5c16.5,0,29.9-4.8,29.9-10.7s-13.4-10.7-29.9-10.7s-29.9,4.8-29.9,10.7
		S81.6,55.5,98.1,55.5z M98.1,61.9c-16.5,0-29.9-4.8-29.9-10.7v6.4c0,5.9,13.4,10.7,29.9,10.7S128,63.5,128,57.6v-6.4
		C128,57.1,114.6,61.9,98.1,61.9z M98.1,74.7c-1.3,0-2.6,0-3.8-0.1c2.1,1.8,3.5,4,3.7,6.5c0,0,0.1,0,0.1,0
		c16.5,0,29.9-4.8,29.9-10.7V64C128,69.9,114.6,74.7,98.1,74.7z M98.1,87.5c0,1.9,0,4.1,0,6.4c16.5,0,29.9-4.8,29.9-10.7v-6.4
		C128,82.7,114.6,87.5,98.1,87.5z M93.9,83.2c0,5.9-13.4,10.7-29.9,10.7s-29.9-4.8-29.9-10.7S47.5,72.5,64,72.5S93.9,77.3,93.9,83.2
		z M64,100.3c-16.5,0-29.9-4.8-29.9-10.7V96c0,5.9,13.4,10.7,29.9,10.7s29.9-4.8,29.9-10.7v-6.4C93.9,95.5,80.5,100.3,64,100.3z
		 M64,113.1c-16.5,0-29.9-4.8-29.9-10.7v6.4c0,5.9,13.4,10.7,29.9,10.7s29.9-4.8,29.9-10.7v-6.4C93.9,108.3,80.5,113.1,64,113.1z"/>
</g>
</svg>
