<?xml version="1.0" encoding="utf-8"?>
<!-- Generator: Adobe Illustrator 18.0.0, SVG Export Plug-In . SVG Version: 6.00 Build 0)  -->
<!DOCTYPE svg PUBLIC "-//W3C//DTD SVG 1.1//EN" "http://www.w3.org/Graphics/SVG/1.1/DTD/svg11.dtd">
<svg version="1.1" id="Layer_1" xmlns="http://www.w3.org/2000/svg" xmlns:xlink="http://www.w3.org/1999/xlink" x="0px" y="0px"
	 viewBox="0 0 128 128" enable-background="new 0 0 128 128" xml:space="preserve">
<path id="compass-7-icon" d="M64,12.4c28.5,0,51.6,23.1,51.6,51.6c0,28.5-23.1,51.6-51.6,51.6c-28.5,0-51.6-23.1-51.6-51.6
	C12.4,35.5,35.5,12.4,64,12.4 M64,0C28.7,0,0,28.7,0,64s28.7,64,64,64s64-28.7,64-64S99.3,0,64,0z M45.9,51.7l-8.8-14.6l14.7,8.8
	C49.4,47.5,47.5,49.4,45.9,51.7z M76.6,46.2c2,1.4,3.8,3.2,5.2,5.2l9.1-14.3L76.6,46.2z M46.1,76.8l-9,14.1l14.1-9
	C49.2,80.5,47.5,78.8,46.1,76.8z M76.4,82.2l14.5,8.7l-8.7-14.5C80.7,78.7,78.7,80.7,76.4,82.2z M108.8,64L78,70.8
	c-1.4,2.8-3.5,5.1-6.2,6.6L64,108.8l-7.8-31.4c-2.7-1.5-4.8-3.8-6.2-6.6L19.2,64L50,57.2c1.4-2.8,3.5-5.1,6.2-6.6L64,19.2l7.8,31.4
	c2.7,1.5,4.8,3.8,6.2,6.6L108.8,64z M71,64c0-3.8-3.1-7-7-7s-7,3.1-7,7c0,3.8,3.1,7,7,7S71,67.8,71,64z"/>
</svg>
