<?xml version="1.0" encoding="utf-8"?>
<!-- Generator: Adobe Illustrator 18.0.0, SVG Export Plug-In . SVG Version: 6.00 Build 0)  -->
<!DOCTYPE svg PUBLIC "-//W3C//DTD SVG 1.1//EN" "http://www.w3.org/Graphics/SVG/1.1/DTD/svg11.dtd">
<svg version="1.1" id="Layer_1" xmlns="http://www.w3.org/2000/svg" xmlns:xlink="http://www.w3.org/1999/xlink" x="0px" y="0px"
	 viewBox="0 0 128 128" enable-background="new 0 0 128 128" xml:space="preserve">
<path id="cube-18-icon" d="M96,53.5V19.2L63.8,0L32,19v34.7L0,70.9v38.5L32.7,128L64,109.9L95.3,128l32.7-18.6V71.1L96,53.5z
	 M89.9,53.7l-23,12.7V40l23-13.5V53.7z M63.8,7.2l22.8,13.8L63.8,34.5L41.5,20.8L63.8,7.2z M9.5,72.7L35,59.2l22.6,12.9L32.7,86.3
	L9.5,72.7z M35.8,91.8L61,77.4v27l-25.2,14.7V91.8z M70.5,71.9l22.7-12.7l25.4,13.8L95.3,86.3L70.5,71.9z M121.9,105.6l-23.6,13.5
	V91.8l23.6-13.5V105.6z"/>
</svg>
