<?xml version="1.0" encoding="utf-8"?>
<!-- Generator: Adobe Illustrator 18.0.0, SVG Export Plug-In . SVG Version: 6.00 Build 0)  -->
<!DOCTYPE svg PUBLIC "-//W3C//DTD SVG 1.1//EN" "http://www.w3.org/Graphics/SVG/1.1/DTD/svg11.dtd">
<svg version="1.1" id="Layer_1" xmlns="http://www.w3.org/2000/svg" xmlns:xlink="http://www.w3.org/1999/xlink" x="0px" y="0px"
	 viewBox="0 0 128 128" enable-background="new 0 0 128 128" xml:space="preserve">
<g>
	<path d="M64,0C28.7,0,0,28.7,0,64s28.7,64,64,64s64-28.7,64-64S99.3,0,64,0z M64,112c-26.5,0-48-21.5-48-48s21.5-48,48-48
		s48,21.5,48,48S90.5,112,64,112z M59.4,41.1c-16.4,0-32,12.6-32,22.9c0-20.2,16.4-36.6,36.6-36.6c11.7,0,22.2,5.5,28.8,14.1
		c-3.8,1.7-8.7,3.8-13.8,6.2C74.3,43.7,67.5,41.1,59.4,41.1z M55,68.7c-6.2,6.2-6.2,16.4,0,22.6c6.2,6.2,16.4,6.2,22.6,0
		c6.2-6.2,23-45.6,23-45.6S61.2,62.4,55,68.7z M66.3,86.9c-3.8,0-6.9-3.1-6.9-6.9s3.1-6.9,6.9-6.9s6.9,3.1,6.9,6.9
		S70.1,86.9,66.3,86.9z"/>
</g>
</svg>
