<?xml version="1.0" encoding="utf-8"?>
<!-- Generator: Adobe Illustrator 18.0.0, SVG Export Plug-In . SVG Version: 6.00 Build 0)  -->
<!DOCTYPE svg PUBLIC "-//W3C//DTD SVG 1.1//EN" "http://www.w3.org/Graphics/SVG/1.1/DTD/svg11.dtd">
<svg version="1.1" id="Layer_1" xmlns="http://www.w3.org/2000/svg" xmlns:xlink="http://www.w3.org/1999/xlink" x="0px" y="0px"
	 viewBox="0 0 128 128" enable-background="new 0 0 128 128" xml:space="preserve">
<g>
	<path d="M78.9,12.8c0,7.1-7.6,12.8-17.1,12.8c-4.7,0-8.9-1.4-12-3.7c-2.5,2.2-6.2,3.7-10.4,3.7c-3.5,0-6.7-1-9.1-2.7
		c-1.5,1.6-4.1,2.7-6.9,2.7c-4.7,0-8.5-2.9-8.5-6.4s3.8-6.4,8.5-6.4c0.8,0,1.6,0.1,2.4,0.3c1.1-5,6.8-8.8,13.6-8.8
		c2.9,0,5.6,0.7,7.9,1.9c3-3.7,8.4-6.2,14.5-6.2C71.3,0,78.9,5.7,78.9,12.8z M32,42.7v-8.5c0-2.4-1.9-4.3-4.3-4.3H10.7
		c-2.4,0-4.3,1.9-4.3,4.3v8.5H32z M125.9,122.1v3.2c0,1.5-1.2,2.7-2.7,2.7H4.8c-1.5,0-2.7-1.2-2.7-2.7v-3.2c0-1.5,1.2-2.7,2.7-2.7
		h1.6V46.9H32v21.3l27.5-21c0.4-0.3,1-0.4,1.5-0.1c0.5,0.2,0.8,0.7,0.8,1.3v19.9l27.5-21c0.4-0.3,1-0.4,1.5-0.1
		c0.5,0.2,0.8,0.7,0.8,1.3v19.9l27.5-21c0.4-0.3,1-0.4,1.5-0.1c0.5,0.2,0.8,0.7,0.8,1.3v19.9v51.2h1.6
		C124.7,119.5,125.9,120.7,125.9,122.1z M53.3,102.4H40.5v8.5h12.8V102.4z M53.3,85.3H40.5v8.5h12.8V85.3z M78.9,102.4H66.1v8.5
		h12.8V102.4z M78.9,85.3H66.1v8.5h12.8V85.3z M104.5,102.4H91.7v8.5h12.8V102.4z M104.5,85.3H91.7v8.5h12.8V85.3z"/>
</g>
</svg>
