<?xml version="1.0" encoding="utf-8"?>
<!-- Generator: Adobe Illustrator 18.0.0, SVG Export Plug-In . SVG Version: 6.00 Build 0)  -->
<!DOCTYPE svg PUBLIC "-//W3C//DTD SVG 1.1//EN" "http://www.w3.org/Graphics/SVG/1.1/DTD/svg11.dtd">
<svg version="1.1" id="Layer_1" xmlns="http://www.w3.org/2000/svg" xmlns:xlink="http://www.w3.org/1999/xlink" x="0px" y="0px"
	 viewBox="0 0 128 128" enable-background="new 0 0 128 128" xml:space="preserve">
<g>
	<path d="M37.9,45.3h52.2V19.2H37.9V45.3z M46.6,27.9h34.8v8.7H46.6V27.9z"/>
	<path d="M119.3,27.9H98.8v8.7h20.5v22.6h-6.5v-9.6L98.8,63.5l13.9,13.9v-9.6h6.5c4.8,0,8.7-3.9,8.7-8.7V36.6
		C128,31.8,124.1,27.9,119.3,27.9z"/>
	<path d="M0,67.9v22.6c0,4.8,3.9,8.7,8.7,8.7h6.5v9.6l13.9-13.9L15.2,80.9v9.6H8.7V67.9h20.5v-8.7H8.7C3.9,59.2,0,63.1,0,67.9z"/>
	<path d="M37.9,108h52.2V81.9H37.9V108z M46.6,90.6h34.8v8.7H46.6V90.6z"/>
	<path d="M37.9,76.7h52.2V50.5H37.9V76.7z M46.6,59.2h34.8V68H46.6V59.2z"/>
</g>
</svg>
