<?xml version="1.0" encoding="utf-8"?>
<!-- Generator: Adobe Illustrator 18.0.0, SVG Export Plug-In . SVG Version: 6.00 Build 0)  -->
<!DOCTYPE svg PUBLIC "-//W3C//DTD SVG 1.1//EN" "http://www.w3.org/Graphics/SVG/1.1/DTD/svg11.dtd">
<svg version="1.1" id="Layer_1" xmlns="http://www.w3.org/2000/svg" xmlns:xlink="http://www.w3.org/1999/xlink" x="0px" y="0px"
	 viewBox="0 0 128 128" enable-background="new 0 0 128 128" xml:space="preserve">
<g>
	<path d="M49.8,36.9c0.3-1.4,1.6-2.4,3-2.4c0,0,0,0,0,0c1.5,0,2.7,1,3,2.4L65,77.8l8.1-28.6c0.4-1.3,1.6-2.2,3-2.3c0,0,0,0,0,0
		c1.4,0,2.6,0.9,3,2.2L85,68.7h33.4c7.7-10.9,11.9-23.4,8.4-38.7C120.1,1.3,78.2-5.9,64,23C49.8-5.9,7.9,1.3,1.3,30
		c-3.6,15.3,0.7,27.8,8.4,38.7h33.2L49.8,36.9z"/>
	<path d="M79.7,72.7l-3.5-11.6l-8.6,30.2c-0.4,1.3-1.6,2.3-3,2.3c0,0-0.1,0-0.1,0c-1.4,0-2.6-1-2.9-2.4L52.9,52l-4.5,20.4
		c-0.3,1.4-1.6,2.4-3,2.4H14.6c16.5,19,42.1,32.9,49.4,48.5c7.4-15.6,33-29.6,49.4-48.5H82.6C81.3,74.9,80.1,74,79.7,72.7z"/>
</g>
</svg>
