<?xml version="1.0" encoding="utf-8"?>
<!-- Generator: Adobe Illustrator 18.0.0, SVG Export Plug-In . SVG Version: 6.00 Build 0)  -->
<!DOCTYPE svg PUBLIC "-//W3C//DTD SVG 1.1//EN" "http://www.w3.org/Graphics/SVG/1.1/DTD/svg11.dtd">
<svg version="1.1" id="Layer_1" xmlns="http://www.w3.org/2000/svg" xmlns:xlink="http://www.w3.org/1999/xlink" x="0px" y="0px"
	 viewBox="0 0 128 128" enable-background="new 0 0 128 128" xml:space="preserve">
<g>
	<path d="M66.6,28.3c-15.5,15.6-14.7,28.9-7.5,38.4c0.1,0.2-2.7,5-5.6,14.5c-1.6-2.3-3.5-4.9-5.3-7c2.5-6.9,0.8-15-10.4-21.3
		C24.2,45.2,0,53.5,0,53.5c15.5,8.7,17.9,23.8,22.8,28.6c10.1,10.1,20-0.9,20-0.9s-8.2-15.1-23.8-23c15.5,1.9,27.2,20.2,27.2,20.2
		c2.2,3.2,4,8.1,5.1,11.5c-0.6,2.5-1.1,5.3-1.5,8.2c-14.7,1.1-26.4,7.7-29.1,16.1c-0.3,0.9-0.1,1.8,0.4,2.5c0.5,0.7,1.4,1.2,2.3,1.2
		h61.4c0.9,0,1.8-0.4,2.3-1.2c0.5-0.7,0.7-1.7,0.4-2.5c-2.6-8.2-13.7-14.6-27.7-16C63,71.6,75,42.1,99.9,27.5
		c-21.8,20.7-29.1,47-29.1,47s20.6,11.8,32.7-8.9c5.8-9.9,4.8-21.9,8.6-32.8c3-8.9,16-22.8,16-22.8S85.3,9.5,66.6,28.3z"/>
</g>
</svg>
