<?xml version="1.0" encoding="utf-8"?>
<!-- Generator: Adobe Illustrator 18.0.0, SVG Export Plug-In . SVG Version: 6.00 Build 0)  -->
<!DOCTYPE svg PUBLIC "-//W3C//DTD SVG 1.1//EN" "http://www.w3.org/Graphics/SVG/1.1/DTD/svg11.dtd">
<svg version="1.1" id="Layer_1" xmlns="http://www.w3.org/2000/svg" xmlns:xlink="http://www.w3.org/1999/xlink" x="0px" y="0px"
	 viewBox="0 0 85 85" enable-background="new 0 0 85 85" xml:space="preserve">
<g>
	<path d="M85,37.9v39.5c0,4.2-3.4,7.6-7.6,7.6H7.6C3.4,85,0,81.7,0,77.5V37.9l22.2,20.7l-12.6,13c-1.1,1.1-1,2.8,0.1,3.9
		c0.5,0.5,1.2,0.8,1.9,0.8s1.4-0.3,2-0.8l13.8-14.2c0.3-0.3,0.7-0.5,1.2-0.5h28.1c0.5,0,0.9,0.2,1.2,0.5l13.8,14.2
		c0.5,0.5,1.3,0.8,2,0.8c0.7,0,1.4-0.3,1.9-0.8c1.1-1.1,1.1-2.8,0.1-3.9l-12.6-13L85,37.9z M15.2,31.9c0-2.5,2.1-4.6,4.6-4.6h45.6
		c2.5,0,4.6,2.1,4.6,4.6v12.8l13.4-12.5L48.2,2.1c-3.3-2.7-8-2.7-11.3,0l-35,30.1l13.4,12.4V31.9z M60.7,43.2c0-0.4-0.3-0.7-0.7-0.7
		H25c-0.4,0-0.7,0.3-0.7,0.7v1.7c0,0.4,0.3,0.7,0.7,0.7h35.1c0.4,0,0.7-0.3,0.7-0.7C60.7,44.8,60.7,43.2,60.7,43.2z M60.1,48.6H25
		c-0.4,0-0.7,0.3-0.7,0.7v1.7c0,0.4,0.3,0.7,0.7,0.7h35.1c0.4,0,0.7-0.3,0.7-0.7v-1.7C60.7,48.9,60.5,48.6,60.1,48.6z M60.7,37.1
		c0-0.4-0.3-0.7-0.7-0.7H25c-0.4,0-0.7,0.3-0.7,0.7v1.7c0,0.4,0.3,0.7,0.7,0.7h35.1c0.4,0,0.7-0.3,0.7-0.7
		C60.7,38.8,60.7,37.1,60.7,37.1z"/>
</g>
</svg>
