<?xml version="1.0" encoding="utf-8"?>
<!-- Generator: Adobe Illustrator 18.0.0, SVG Export Plug-In . SVG Version: 6.00 Build 0)  -->
<!DOCTYPE svg PUBLIC "-//W3C//DTD SVG 1.1//EN" "http://www.w3.org/Graphics/SVG/1.1/DTD/svg11.dtd">
<svg version="1.1" id="Layer_1" xmlns="http://www.w3.org/2000/svg" xmlns:xlink="http://www.w3.org/1999/xlink" x="0px" y="0px"
	 viewBox="0 0 128 128" enable-background="new 0 0 128 128" xml:space="preserve">
<g>
	<path d="M113.2,9.2H14.9C6.7,9.2,0,15.8,0,23.9V104c0,8.2,6.7,14.8,14.9,14.8h98.2c8.3,0,14.9-6.6,14.9-14.8V23.9
		C128.1,15.8,121.4,9.2,113.2,9.2z M106.8,19.9c0-1.3,1-2.3,2.3-2.3h3.9c1.3,0,2.3,1,2.3,2.3v3.9c0,1.3-1,2.3-2.3,2.3h-3.9
		c-1.3,0-2.3-1-2.3-2.3V19.9z M89.7,19.9c0-1.3,1-2.3,2.3-2.3h3.9c1.3,0,2.3,1,2.3,2.3v3.9c0,1.3-1,2.3-2.3,2.3H92
		c-1.3,0-2.3-1-2.3-2.3V19.9z M72.6,19.9c0-1.3,1-2.3,2.3-2.3h3.9c1.3,0,2.3,1,2.3,2.3v3.9c0,1.3-1,2.3-2.3,2.3h-3.9
		c-1.3,0-2.3-1-2.3-2.3V19.9z M113.2,110.4H14.9c-3.5,0-6.4-2.8-6.4-6.3V34.5h111v69.7h0.1C119.6,107.6,116.7,110.4,113.2,110.4z"/>
	<path d="M93.8,69.4c0-0.5-0.2-0.9-0.5-1.4c-0.1-0.1-0.2-0.2-0.3-0.4c-0.1-0.1-0.4-0.3-1-0.6l-5.6-1.8c-0.4-1.3-0.9-2.5-1.5-3.7
		l2.7-5.2c0.4-0.9,0.3-1.9-0.3-2.6c-0.2-0.2-0.4-0.5-0.9-1.1c-0.7-0.8-1.6-1.6-2.5-2.5l-1-0.9c-0.5-0.4-1.1-0.6-1.6-0.6
		c-0.4,0-0.8,0.1-1.1,0.3L75,51.5c-1.2-0.6-2.5-1.1-3.7-1.5l-1.7-5.4c-0.2-1-1.1-1.8-2.3-1.9L65.9,43c-0.6,0-1.2,0-1.9,0
		c-0.6,0-1.1,0-1.7,0.1l-1.4,0.1c-0.7,0.1-1.3,0.4-1.6,0.8c-0.3,0.3-0.4,0.6-0.5,0.9L57,50.4c-1.3,0.4-2.5,0.9-3.7,1.5L48,49.2
		c-0.4-0.2-0.7-0.3-1.1-0.3c-0.6,0-1.2,0.2-1.7,0.6l-1,0.9c-1,0.9-1.8,1.7-2.6,2.5c-0.5,0.6-0.7,0.9-0.9,1.1
		c-0.6,0.7-0.7,1.8-0.3,2.7l2.7,5.1c-0.6,1.2-1.1,2.4-1.5,3.7L36,67.2c-0.1,0-0.2,0.1-0.2,0.1c-0.3,0.1-0.6,0.3-0.8,0.5
		c-0.1,0.1-0.1,0.1-0.2,0.2c-0.4,0.5-0.5,1-0.5,1.4l-0.1,1.2c-0.1,1.3-0.1,2.4,0,3.5l0.1,1.3c0,1,0.7,1.9,1.8,2.2l5.6,1.7
		c0.4,1.3,0.9,2.5,1.5,3.7l-2.6,5c-0.6,0.9-0.4,2.1,0.3,2.9l0.9,1c0.8,0.9,1.6,1.7,2.5,2.5l1.1,1c0.4,0.3,1,0.5,1.5,0.5
		c0.3,0,0.7-0.1,1-0.2c0.1,0,0.1,0,0.2-0.1l5.2-2.7c1.1,0.6,2.4,1.1,3.7,1.5l1.8,5.6c0.4,1,1.2,1.6,2.2,1.6l1.4,0.1c0.5,0,1,0,1.5,0
		c0.7,0,1.4,0,2.1-0.1l1.2-0.1c0.8,0,1.5-0.3,1.9-1c0.2-0.3,0.3-0.6,0.4-0.8l1.8-5.5c1.3-0.4,2.4-0.9,3.6-1.5l5.4,2.7
		c0.3,0.1,0.7,0.2,1,0.2c0.6,0,1.1-0.2,1.7-0.6l0.9-0.8c0.9-0.8,1.8-1.6,2.5-2.5l0.9-1c0.7-0.8,0.9-2,0.4-2.8L85,82.7
		c0.6-1.2,1.1-2.4,1.5-3.7l5.7-1.8c0.9-0.4,1.6-1.2,1.6-2.2l0.1-1.3c0.1-1.1,0.1-2.3,0-3.6L93.8,69.4z M64,87.2
		c-8.2,0-14.9-6.6-14.9-14.8S55.8,57.6,64,57.6s15,6.6,15,14.8S72.4,87.2,64,87.2z"/>
</g>
</svg>
