<?xml version="1.0" encoding="utf-8"?>
<!-- Generator: Adobe Illustrator 18.0.0, SVG Export Plug-In . SVG Version: 6.00 Build 0)  -->
<!DOCTYPE svg PUBLIC "-//W3C//DTD SVG 1.1//EN" "http://www.w3.org/Graphics/SVG/1.1/DTD/svg11.dtd">
<svg version="1.1" id="Layer_1" xmlns="http://www.w3.org/2000/svg" xmlns:xlink="http://www.w3.org/1999/xlink" x="0px" y="0px"
	 viewBox="0 0 128 128" enable-background="new 0 0 128 128" xml:space="preserve">
<g>
	<path d="M99.3,110.3c0,9.8-15.8,17.7-35.3,17.7s-35.3-7.9-35.3-17.7c0-6.3,6.6-11.8,16.4-14.9c1.2,1.9,2.3,3.8,3.4,5.7
		c-6.7,1.8-11,4.7-11,8.1c0,5.5,11.9,9.9,26.5,9.9s26.5-4.4,26.5-9.9c0-3.3-4.4-6.2-11-8.1c1.1-1.9,2.2-3.8,3.4-5.7
		C92.7,98.6,99.3,104.1,99.3,110.3z M64,0C42.1,0,24.3,17.6,24.3,39.4c0,22.9,21.3,35,37.5,69.6c0.4,0.8,1.2,1.4,2.2,1.4
		c0.9,0,1.8-0.5,2.2-1.4c16.2-34.5,37.6-46.7,37.6-69.6C103.7,17.6,85.9,0,64,0z M64,61.8c-12.2,0-22.1-9.9-22.1-22.1
		S51.8,17.7,64,17.7c12.2,0,22.1,9.9,22.1,22.1S76.2,61.8,64,61.8z M64,26.5c-7.3,0-13.2,5.9-13.2,13.2S56.7,53,64,53
		S77.2,47,77.2,39.7S71.3,26.5,64,26.5z"/>
</g>
</svg>
