<?xml version="1.0" encoding="utf-8"?>
<!-- Generator: Adobe Illustrator 18.0.0, SVG Export Plug-In . SVG Version: 6.00 Build 0)  -->
<!DOCTYPE svg PUBLIC "-//W3C//DTD SVG 1.1//EN" "http://www.w3.org/Graphics/SVG/1.1/DTD/svg11.dtd">
<svg version="1.1" id="Layer_1" xmlns="http://www.w3.org/2000/svg" xmlns:xlink="http://www.w3.org/1999/xlink" x="0px" y="0px"
	 viewBox="0 0 128 128" enable-background="new 0 0 128 128" xml:space="preserve">
<path id="network-6-icon" d="M54.6,22.2c-3.2-1.5-5.9-2.8-8.6-3.8C50.2,7.3,56.2,0,64,0c7.6,0,13.5,6.9,17.7,17.6
	c-2.7,1.1-5.4,2.4-8.5,3.9C70,13.1,66.3,9.4,64,9.4C61.6,9.4,57.8,13.4,54.6,22.2z M64,118.6c-2.3,0-6-3.8-9.2-12.1
	c-3.1,1.6-5.9,2.8-8.5,3.9C50.5,121.1,56.4,128,64,128c7.8,0,13.9-7.3,18-18.4c-2.6-1.1-5.4-2.3-8.6-3.8
	C70.2,114.6,66.4,118.6,64,118.6z M38.4,106.8c-10.4,3.8-25.9,7.4-32.1-1.7C3.3,100.6,2.1,92,14,76.3c3.2-4.2,6.8-8.2,10.5-12
	C32.9,56,42.2,48,54.4,39.8c-5.9-3.2-12.3-6.2-18.5-8.5c-6.4-2.3-12-3.6-16.4-3.6c-2.8,0-4.8,0.6-5.5,1.5c-0.7,1-0.7,4.2,2.4,9.8
	c0.4,0,0.8-0.1,1.1-0.1c5.7,0,10.3,4.6,10.3,10.3c0,5.7-4.6,10.3-10.3,10.3S7.3,55,7.3,49.3c0-1.8,0.5-3.6,1.3-5.1
	c-6-10.5-4.8-16.7-2.3-20.3c1.8-2.5,5.5-5.6,13.2-5.6c13.7,0,32,8.9,43.9,15.7c12-7.3,31-16.9,45.1-16.9c7.7,0,11.4,3.1,13.2,5.7
	c3.1,4.5,4.2,13.2-7.7,28.8C97.2,73.8,63.9,97.6,38.4,106.8z M106.5,46.1c8.2-10.8,8.4-16.4,7.4-17.9c-0.7-1-2.7-1.6-5.4-1.6
	c-10.6,0-26.7,7.8-36,13.1c6.9,4.5,13.3,9.2,19.1,14c-2.2,2.2-4.5,4.4-6.9,6.5C78.2,54.8,71,49.6,63.5,45c-8.6,5.5-17.2,12-25,18.9
	c5.8,5.1,12.8,10.4,20.2,15.3c-2.8,1.8-5.7,3.5-9,5.2c0,0,0,0,0,0c0,0,0,0-0.1-0.1c-6.2-4.3-12.3-9.1-18-14
	C16.4,85.8,12,96.9,14.1,99.9c0.7,1,2.7,1.6,5.4,1.6c12.8,0,33-10.8,45-18.5C79.2,73.5,96,59.9,106.5,46.1z M119.4,83.9
	c0.8-1.4,1.2-3.1,1.2-4.8c0-5.7-4.6-10.3-10.3-10.3S100,73.4,100,79c0,5.7,4.6,10.3,10.3,10.3c0.5,0,0.9,0,1.4-0.1
	c3,5.5,3,8.5,2.3,9.5c-0.7,1-2.7,1.5-5.5,1.5c-8.7,0-20.8-5-28.6-8.8c-2.6,1.8-5.8,4-9,6c10.5,5.5,25.8,12.2,37.6,12.2
	c7.7,0,11.4-3,13.2-5.6C124.2,100.5,125.4,94.3,119.4,83.9z"/>
</svg>
