<?xml version="1.0" encoding="utf-8"?>
<!-- Generator: Adobe Illustrator 18.0.0, SVG Export Plug-In . SVG Version: 6.00 Build 0)  -->
<!DOCTYPE svg PUBLIC "-//W3C//DTD SVG 1.1//EN" "http://www.w3.org/Graphics/SVG/1.1/DTD/svg11.dtd">
<svg version="1.1" id="Layer_1" xmlns="http://www.w3.org/2000/svg" xmlns:xlink="http://www.w3.org/1999/xlink" x="0px" y="0px"
	 viewBox="0 0 128 128" enable-background="new 0 0 128 128" xml:space="preserve">
<g>
	<path fill="#231F20" d="M127.6,16.6c-0.4-0.5-1-0.6-1.6-0.5L1.4,48c-0.8,0.2-1.3,0.8-1.4,1.6c-0.1,0.8,0.3,1.5,1,1.9l29.4,15.9
		l4,34.9c0.1,0.7,0.5,1.2,1,1.5c0.6,0.3,1.3,0.3,1.9-0.1l25.1-16.4l28.1,24.2c0.5,0.4,1.1,0.5,1.7,0.4c0.6-0.1,1.1-0.6,1.3-1.1
		l34.4-92.6C128.1,17.7,128,17,127.6,16.6z M49.3,75.3l-9.1,19.3l-3.7-29.4l91-48.6L49.3,75.3z"/>
</g>
</svg>
