<?xml version="1.0" encoding="utf-8"?>
<!-- Generator: Adobe Illustrator 18.0.0, SVG Export Plug-In . SVG Version: 6.00 Build 0)  -->
<!DOCTYPE svg PUBLIC "-//W3C//DTD SVG 1.1//EN" "http://www.w3.org/Graphics/SVG/1.1/DTD/svg11.dtd">
<svg version="1.1" id="Layer_1" xmlns="http://www.w3.org/2000/svg" xmlns:xlink="http://www.w3.org/1999/xlink" x="0px" y="0px"
	 viewBox="0 0 128 128" enable-background="new 0 0 128 128" xml:space="preserve">
<g>
	<path d="M35.7,92.3C35.7,92.3,35.7,92.3,35.7,92.3C35.7,92.3,35.7,92.3,35.7,92.3L35.7,92.3z M124.8,113.5c6.9-9,0.9-14.1-2.7-16.8
		c-3.5-2.6-19.8-13-22.5-14.8c-2.6-1.8-9.2-4-14.1,1.8c-6.5,7.6-11.9,16.9-35-6.3c-23.1-23.1-13.9-28.6-6.3-35
		c5.7-4.8,3.5-11.5,1.8-14.1C44.3,25.7,33.9,9.4,31.3,5.8c-2.6-3.5-7.7-9.6-16.8-2.7c-4.4,3.4-8.3,7.2-11,11.9
		c-9,15.6-1.3,43.7,32.2,77.2c33.5,33.5,61.6,41.2,77.2,32.2C117.6,121.8,121.5,117.8,124.8,113.5z M65.6,10.5
		c12.4-0.7,26.7,4.4,37.1,14.8c10.4,10.4,15.5,24.7,14.8,37.1c0,0.5,0.1,0.9,0.4,1.2c0.2,0.2,0.5,0.4,0.9,0.4
		c0.8,0.1,1.6-0.4,1.8-1.2c5-15.8,0.8-32.8-10.9-44.5C98,6.6,81,2.4,65.2,7.4c-0.8,0.2-1.3,1-1.2,1.8c0,0.3,0.2,0.6,0.4,0.9
		C64.7,10.4,65.1,10.6,65.6,10.5z M97,68.9c-0.3-0.3-0.4-0.7-0.4-1.1c0.3-8.7-3.8-18.2-11-25.4c-7.2-7.2-16.7-11.3-25.4-11
		c-0.4,0-0.8-0.1-1.1-0.4c-0.2-0.2-0.4-0.5-0.4-0.8c-0.1-0.7,0.3-1.4,1-1.7c11.9-4.1,24.6-1.5,32.9,6.9c8.3,8.3,11,20.9,6.9,32.9
		c-0.2,0.7-0.9,1.1-1.7,1C97.5,69.3,97.2,69.1,97,68.9z"/>
</g>
</svg>
