<?xml version="1.0" encoding="utf-8"?>
<!-- Generator: Adobe Illustrator 18.0.0, SVG Export Plug-In . SVG Version: 6.00 Build 0)  -->
<!DOCTYPE svg PUBLIC "-//W3C//DTD SVG 1.1//EN" "http://www.w3.org/Graphics/SVG/1.1/DTD/svg11.dtd">
<svg version="1.1" id="Layer_1" xmlns="http://www.w3.org/2000/svg" xmlns:xlink="http://www.w3.org/1999/xlink" x="0px" y="0px"
	 viewBox="0 0 128 128" enable-background="new 0 0 128 128" xml:space="preserve">
<g>
	<path d="M29.6,94C29.6,94,29.6,94,29.6,94C29.5,94,29.5,94,29.6,94L29.6,94z M103.3,111.6c5.7-7.5,0.7-11.7-2.2-13.9
		c-2.9-2.2-16.4-10.8-18.6-12.2c-2.2-1.5-7.7-3.3-11.7,1.5c-5.4,6.3-9.8,14-29-5.2c-19.1-19.1-11.5-23.6-5.2-29
		c4.8-4,2.9-9.5,1.5-11.7c-1.5-2.2-10-15.7-12.2-18.6c-2.2-2.9-6.4-7.9-13.9-2.2c-3.6,2.8-6.9,6-9.1,9.9C-4.6,43.1,1.8,66.3,29.5,94
		c27.7,27.7,51,34.1,63.9,26.7C97.3,118.4,100.5,115.2,103.3,111.6z M128,35.3c0,17.1-15.8,30.9-35.3,30.9c-3.9,0-7.7-0.6-11.2-1.6
		c-9.7,4.5-16.4,6-20.1,6c-1.1,0-2.1-0.1-2.9-0.3c-0.5-0.1-0.9-0.5-1-0.9c-0.1-0.5,0-1,0.4-1.3l1-0.9c2.7-2.3,5.8-7.4,6.8-12.2
		c-5.1-5.4-8.2-12.3-8.2-19.8c0-17.1,15.8-30.9,35.3-30.9S128,18.2,128,35.3z M80.6,35.3c0-3-2.5-5.5-5.5-5.5s-5.5,2.5-5.5,5.5
		c0,3,2.5,5.5,5.5,5.5S80.6,38.4,80.6,35.3z M98.2,35.3c0-3-2.5-5.5-5.5-5.5s-5.5,2.5-5.5,5.5c0,3,2.5,5.5,5.5,5.5
		S98.2,38.4,98.2,35.3z M115.9,35.3c0-3-2.5-5.5-5.5-5.5s-5.5,2.5-5.5,5.5c0,3,2.5,5.5,5.5,5.5S115.9,38.4,115.9,35.3z"/>
</g>
</svg>
