<?xml version="1.0" encoding="utf-8"?>
<!-- Generator: Adobe Illustrator 18.0.0, SVG Export Plug-In . SVG Version: 6.00 Build 0)  -->
<!DOCTYPE svg PUBLIC "-//W3C//DTD SVG 1.1//EN" "http://www.w3.org/Graphics/SVG/1.1/DTD/svg11.dtd">
<svg version="1.1" id="Layer_1" xmlns="http://www.w3.org/2000/svg" xmlns:xlink="http://www.w3.org/1999/xlink" x="0px" y="0px"
	 viewBox="0 0 128 128" enable-background="new 0 0 128 128" xml:space="preserve">
<g>
	<path d="M100.5,68.2l3.5,25.1c0.3,1.8-0.8,3.6-2.6,4.1l-7.4,2.4c-1.2,0.4-2.6,0-3.4-1L72.8,77.5c2.3-0.8,4.6-1.5,6.9-2.3
		c5.4-1.8,10.9-3.6,16.4-5.5C97.6,69.2,99.1,68.7,100.5,68.2z M126.9,37.4c-0.2-0.3-0.5-0.5-0.7-0.8c-10.4,0.4-17.7,4-20.4,4.9
		c-2.8,0.9-4.1-3.6-0.5-5c3.2-1.2,6.7-3.2,13.5-3.6c-8.9-2.1-22.1-0.3-30.4,3c-1.7,0.7-5.7,2.5-11.1,5.1L25.9,28.2
		c-1.7-0.4-3.6-0.2-5.1,0.8L13,33.7c-0.6,0.4-1,1.1-1,1.8c0,0.7,0.4,1.4,1,1.8L44.5,57c-6.2,3.1-12.1,6-17.2,8.5L9,56.4
		c-1-0.5-2.2-0.5-3.2,0L1,58.8c-0.4,0.2-0.7,0.6-0.9,1c-0.1,0.4-0.1,0.9,0.1,1.4L8.1,76c-3.4,2.9-4.9,6.2-3.7,8.7
		c1.9,3.9,9,3.8,15.6,2.8C37.5,85,65.3,74.8,94.6,65.2C127.7,54.3,130.2,41.8,126.9,37.4z"/>
</g>
</svg>
