<?xml version="1.0" encoding="utf-8"?>
<!-- Generator: Adobe Illustrator 18.0.0, SVG Export Plug-In . SVG Version: 6.00 Build 0)  -->
<!DOCTYPE svg PUBLIC "-//W3C//DTD SVG 1.1//EN" "http://www.w3.org/Graphics/SVG/1.1/DTD/svg11.dtd">
<svg version="1.1" id="Layer_1" xmlns="http://www.w3.org/2000/svg" xmlns:xlink="http://www.w3.org/1999/xlink" x="0px" y="0px"
	 viewBox="0 0 128 128" enable-background="new 0 0 128 128" xml:space="preserve">
<g>
	<path d="M49.8,84.2C60.5,73.9,74.3,66.7,89.6,64c0-2.7,0.9-5.3,2.4-7.3c-9.3-9.9-21.5-17-35.3-20c-1.8,4.8-6.5,8.2-11.9,8.2
		c-0.6,0-1.2-0.1-1.8-0.2c-1.9,6.3-3,13.1-3,20c0,6.5,1,12.8,2.6,18.8c0.7-0.1,1.4-0.2,2.2-0.2C46.6,83.2,48.3,83.6,49.8,84.2z"/>
	<path d="M118.1,98.1c4.5-7.1,7.6-15.1,9-23.7c-4.4-1.6-9.1-2.8-13.9-3.5c-0.5,0.7-1,1.4-1.5,2C115.1,80.7,117.4,89.2,118.1,98.1z"
		/>
	<path d="M0,64c0,22.6,11.7,42.4,29.4,53.8c1.4-4.8,3.3-9.4,5.5-13.7c-1.8-2.2-2.9-5-2.9-8.1c0-3.6,1.5-6.9,3.9-9.2
		c-2.1-7-3.3-14.5-3.3-22.2c0-8.1,1.3-15.9,3.6-23.2c-1.7-1.6-3-3.6-3.7-5.9C21.4,37,11.2,41,2.3,47.1C0.9,52.5,0,58.1,0,64z"/>
	<path d="M53.9,23c1.6,1.6,2.8,3.7,3.3,6.1c15.9,3.3,29.9,11.5,40.6,23c1.4-0.6,3-0.9,4.6-0.9c7,0,12.6,5.6,12.8,12.5
		c4.4,0.7,8.6,1.7,12.7,3.1c0-1,0.1-1.9,0.1-2.9c0-29.9-20.6-55-48.4-62C69.4,6.9,60.6,14.1,53.9,23z"/>
	<path d="M32.7,28.1c1.7-5.1,6.4-8.9,12.1-8.9c0.9,0,1.8,0.1,2.6,0.3C53,11.9,59.9,5.3,67.8,0.2C66.5,0.1,65.3,0,64,0
		C38.7,0,16.9,14.7,6.5,36.1C14.5,31.9,23.3,29.2,32.7,28.1z"/>
	<path d="M77.9,126.4c12.9-2.9,24.3-9.6,33-19c0-1,0.2-2.1,0.2-3.1c0-9.9-2.1-19.3-5.8-27.8c-0.9,0.2-1.8,0.3-2.8,0.3
		c-4.5,0-8.4-2.3-10.7-5.7C77.8,73.3,65.3,79.7,55.5,89c1.3,2,2.1,4.4,2.1,7c0,3.8-1.7,7.1-4.2,9.5
		C59.8,114.2,68.1,121.5,77.9,126.4z"/>
	<path d="M65.9,127.9c-7.6-5.2-14.1-11.7-19.4-19.3c-0.6,0.1-1.1,0.2-1.7,0.2c-1.3,0-2.5-0.2-3.7-0.6c-2.1,4.2-3.8,8.7-5.1,13.3
		c8.5,4.1,17.9,6.5,28,6.5C64.7,128,65.3,127.9,65.9,127.9z"/>
</g>
</svg>
