<?xml version="1.0" encoding="utf-8"?>
<!-- Generator: Adobe Illustrator 18.0.0, SVG Export Plug-In . SVG Version: 6.00 Build 0)  -->
<!DOCTYPE svg PUBLIC "-//W3C//DTD SVG 1.1//EN" "http://www.w3.org/Graphics/SVG/1.1/DTD/svg11.dtd">
<svg version="1.1" id="Layer_1" xmlns="http://www.w3.org/2000/svg" xmlns:xlink="http://www.w3.org/1999/xlink" x="0px" y="0px"
	 viewBox="0 0 128 128" enable-background="new 0 0 128 128" xml:space="preserve">
<path d="M72,108.7V42.3c10.1,0.7,16.8,3.4,24.4,4.8L85,76h7.5l11.1-28c0.3,0,0.6,0,0.9,0l11,27.8h7.5l-11.3-28.4
	c4.3-1,7.2-3.3,8.1-6.1c0.6-2,0.1-5.2-3.4-5.2c-3.4,0-2.6,4-10.3,4c-8.7,0-18.7-14.6-34-18.7L64.6,4.9c-0.1-0.2-0.3-0.4-0.6-0.4
	c-0.3,0-0.5,0.1-0.6,0.4l-7.5,16.6c-15.4,4.1-25.3,18.7-34,18.7c-7.7,0-6.9-4-10.3-4c-3.5,0-4,3.2-3.4,5.2c0.9,2.8,3.7,5.1,8.1,6.1
	L5,76h7.5l11-27.8c0.3,0,0.6,0,0.9,0l11.1,27.9H43L31.6,47.2c7.6-1.4,14.3-3.9,24.4-4.8v66.1c-11.6,2-28,6.9-28,10.4v1.9
	c0,1.5,1.2,2.7,2.8,2.7H56h16h25.2c1.5,0,2.8-1.2,2.8-2.7V119C100,115.6,83.6,110.6,72,108.7z M64,37.2c-2.8,0-5-2.2-5-5s2.2-5,5-5
	c2.8,0,5,2.2,5,5S66.8,37.2,64,37.2z M24,99.8c-12.9,0-22.7-7.3-24-17.6c-0.1-0.6,0.1-1.1,0.5-1.6c0.4-0.4,0.9-0.7,1.5-0.7h1.4h7.5
	H37h7.5H46c0.6,0,1.1,0.2,1.5,0.7c0.4,0.4,0.6,1,0.5,1.6C46.7,92.6,36.9,99.8,24,99.8z M127.5,80.7c0.4,0.4,0.6,1,0.5,1.6
	c-1.2,10.4-11.1,17.6-24,17.6s-22.7-7.3-24-17.6c-0.1-0.6,0.1-1.1,0.5-1.6c0.4-0.4,0.9-0.7,1.5-0.7h1.4h7.5H117h7.5h1.4
	C126.6,80,127.1,80.2,127.5,80.7z"/>
</svg>
