<?xml version="1.0" encoding="utf-8"?>
<!-- Generator: Adobe Illustrator 18.0.0, SVG Export Plug-In . SVG Version: 6.00 Build 0)  -->
<!DOCTYPE svg PUBLIC "-//W3C//DTD SVG 1.1//EN" "http://www.w3.org/Graphics/SVG/1.1/DTD/svg11.dtd">
<svg version="1.1" id="Layer_1" xmlns="http://www.w3.org/2000/svg" xmlns:xlink="http://www.w3.org/1999/xlink" x="0px" y="0px"
	 viewBox="0 0 128 128" enable-background="new 0 0 128 128" xml:space="preserve">
<g>
	<g>
		<path d="M126.9,77.6l-4.9-22c-0.1-0.5-0.4-1.1-0.7-1.7c-0.3-0.6-0.8-1.2-1.3-1.7c-0.5-0.5-1-1.1-1.6-1.5c-0.6-0.5-1.2-0.8-1.8-1.1
			L94.3,38.8c-0.4-0.2-0.8-0.4-1.3-0.5c-0.4-0.1-0.9-0.2-1.3-0.3C91.3,38,90.9,38,90.4,38c-0.4,0-0.8,0-1.2,0.1
			c-0.2,0-0.4,0.1-0.6,0.1c-0.2,0.1-0.4,0.1-0.5,0.2c-0.2,0.1-0.3,0.1-0.5,0.2c-0.1,0.1-0.3,0.2-0.4,0.3L72.7,51
			c-0.5,0.4-0.8,0.9-1,1.4c-0.2,0.5-0.4,1.2-0.4,1.8c0,0.6,0,1.3,0.2,2c0.2,0.7,0.5,1.3,0.9,1.9l16.5,23.7c0.5,0.7,1.1,1.4,1.9,2
			c0.7,0.6,1.5,1.1,2.4,1.6c0.8,0.4,1.7,0.7,2.6,0.9c0.9,0.2,1.7,0.3,2.4,0.2l25.3-3.2c0.1,0,0.2,0,0.2,0c0.1,0,0.2,0,0.2,0
			c0.1,0,0.1,0,0.2-0.1c0.1,0,0.1,0,0.2-0.1c0.5-0.2,1-0.5,1.4-0.8c0.4-0.4,0.7-0.8,1-1.3c0.2-0.5,0.4-1,0.5-1.6
			C127.1,78.8,127,78.2,126.9,77.6z M64.3,59.9c-0.2-0.7-0.6-1.3-1-2c-0.5-0.6-1-1.2-1.7-1.7c-0.6-0.5-1.3-1-2.1-1.3
			c-0.7-0.4-1.5-0.6-2.3-0.8l-28.6-5.4c-0.3-0.1-0.6-0.1-0.9-0.1c-0.3,0-0.6,0-0.9,0c-0.3,0-0.6,0-0.9,0c-0.3,0-0.6,0.1-0.9,0.1
			c-0.6,0.1-1.1,0.2-1.7,0.4c-0.5,0.2-1.1,0.4-1.6,0.6c-0.5,0.3-0.9,0.5-1.4,0.9c-0.4,0.3-0.8,0.7-1.1,1L0.8,75.3
			c-0.6,0.8-1,1.6-1.3,2.6C-0.8,78.8-1,79.8-1,80.8c0,1,0.2,1.9,0.5,2.8c0.3,0.9,0.8,1.7,1.5,2.4l25.4,26c0.7,0.7,1.5,1.2,2.4,1.7
			c0.9,0.4,1.9,0.8,2.9,1c1,0.2,2,0.3,3.1,0.2c1-0.1,2-0.3,2.9-0.6c0.1,0,0.3-0.1,0.4-0.1c0.1-0.1,0.2-0.1,0.4-0.2
			c0.1-0.1,0.2-0.1,0.4-0.2c0.1-0.1,0.2-0.1,0.3-0.2l30.3-17.4c0.7-0.4,1.4-1,1.9-1.7c0.5-0.7,1-1.5,1.3-2.3
			c0.3-0.8,0.5-1.7,0.5-2.6c0-0.9-0.1-1.8-0.4-2.6L64.3,59.9z M28.4,36.3c0.5,0.5,1,1,1.6,1.5c0.6,0.4,1.3,0.8,2.1,1l26.2,8.9
			c0.4,0.1,0.7,0.2,1.1,0.3c0.4,0.1,0.8,0.1,1.1,0.1c0.4,0,0.8,0,1.1,0c0.4,0,0.7-0.1,1.1-0.1c0.4-0.1,0.7-0.2,1-0.3
			c0.3-0.1,0.6-0.2,0.9-0.4c0.3-0.1,0.6-0.3,0.8-0.5c0.2-0.2,0.5-0.4,0.6-0.6l11.6-13.8c0.3-0.3,0.5-0.8,0.6-1.2
			c0.1-0.5,0.1-0.9,0-1.4c-0.1-0.5-0.3-1-0.6-1.5c-0.3-0.5-0.6-0.9-1.1-1.3L61.8,13c-0.4-0.4-0.9-0.7-1.4-1
			c-0.5-0.3-1.1-0.6-1.8-0.8c-0.6-0.2-1.3-0.4-1.9-0.5c-0.6-0.1-1.2-0.1-1.8-0.1L33.4,12c-0.6,0-1.3,0.2-1.8,0.4
			c-0.6,0.2-1.1,0.5-1.5,0.8c-0.5,0.3-0.8,0.7-1.1,1.1c-0.3,0.4-0.4,0.8-0.5,1.3l-1.4,17.5c0,0.5,0.1,1.1,0.3,1.7
			C27.6,35.2,28,35.8,28.4,36.3z"/>
	</g>
</g>
</svg>
