<?xml version="1.0" encoding="utf-8"?>
<!-- Generator: Adobe Illustrator 18.0.0, SVG Export Plug-In . SVG Version: 6.00 Build 0)  -->
<!DOCTYPE svg PUBLIC "-//W3C//DTD SVG 1.1//EN" "http://www.w3.org/Graphics/SVG/1.1/DTD/svg11.dtd">
<svg version="1.1" id="Layer_1" xmlns="http://www.w3.org/2000/svg" xmlns:xlink="http://www.w3.org/1999/xlink" x="0px" y="0px"
	 viewBox="0 0 128 128" enable-background="new 0 0 128 128" xml:space="preserve">
<g>
	<path d="M116.5,20.2c-13.7-0.5-31.2-5.4-51.1-19.7c-0.8-0.6-2-0.6-2.8,0c-20,14.3-37.5,19.2-51.1,19.7c-1.3,0-2.3,1.1-2.3,2.4
		c0,5.7,0,21.3,0,46.1c0,38.6,47.3,56.7,54.1,59.1c0.5,0.2,1.1,0.2,1.6,0c6.8-2.4,54.1-20.5,54.1-59.1c0-24.8,0-40.5,0-46.1
		C118.9,21.4,117.8,20.3,116.5,20.2z M105.2,69c0,27.7-30.5,40.9-41.1,44.7c0,0,0,0,0,0V64.1H22.8V33.2c11.4-1.9,25.4-6.6,41.2-16.6
		v47.4h41.2V69z"/>
</g>
</svg>
