<?xml version="1.0" encoding="utf-8"?>
<!-- Generator: Adobe Illustrator 18.0.0, SVG Export Plug-In . SVG Version: 6.00 Build 0)  -->
<!DOCTYPE svg PUBLIC "-//W3C//DTD SVG 1.1//EN" "http://www.w3.org/Graphics/SVG/1.1/DTD/svg11.dtd">
<svg version="1.1" id="Layer_1" xmlns="http://www.w3.org/2000/svg" xmlns:xlink="http://www.w3.org/1999/xlink" x="0px" y="0px"
	 viewBox="0 0 128 128" enable-background="new 0 0 128 128" xml:space="preserve">
<g>
	<path d="M25,88.4C25.3,70.6,36,52.9,59.7,52.7v11c0,0.9,0.5,1.7,1.3,2.1c0.3,0.2,0.7,0.3,1,0.3c0.5,0,1-0.2,1.4-0.5l21.1-16.8
		c0.6-0.5,0.9-1.2,0.9-1.9c0-0.8-0.3-1.5-0.9-1.9L63.3,28.2c-0.4-0.3-0.9-0.5-1.4-0.5c-0.3,0-0.7,0.1-1,0.3
		c-0.8,0.4-1.3,1.2-1.3,2.1v11.1c-27,0.2-45.9,19.5-46.3,47.2C5.7,90.9,0,98.1,0,106.7c0,10.6,8.6,19.2,19.2,19.2
		s19.2-8.6,19.2-19.2C38.4,98.1,32.7,90.9,25,88.4z M19.2,115.2c-4.7,0-8.5-3.8-8.5-8.5s3.8-8.5,8.5-8.5s8.5,3.8,8.5,8.5
		S23.9,115.2,19.2,115.2z M108.8,27.7c-10.6,0-19.2,8.6-19.2,19.2s8.6,19.2,19.2,19.2S128,57.5,128,46.9S119.4,27.7,108.8,27.7z
		 M108.8,55.5c-4.7,0-8.5-3.8-8.5-8.5s3.8-8.5,8.5-8.5c4.7,0,8.5,3.8,8.5,8.5S113.5,55.5,108.8,55.5z M88.9,87l-9,9l9,9
		c0.9,0.9,0.9,2.4,0,3.3l-4.2,4.2c-0.9,0.9-2.4,0.9-3.3,0l-9-9l-9,9c-0.4,0.4-1,0.7-1.6,0.7c-0.6,0-1.2-0.2-1.6-0.7l-4.2-4.2
		c-0.9-0.9-0.9-2.4,0-3.3l9-9l-9-9c-0.4-0.4-0.7-1-0.7-1.6s0.2-1.2,0.7-1.6l4.2-4.2c0.9-0.9,2.4-0.9,3.3,0l9,8.9l9-9
		c0.9-0.9,2.4-0.9,3.3,0l4.2,4.2C89.8,84.7,89.8,86.1,88.9,87z M0.7,10.2C0.2,9.8,0,9.2,0,8.6S0.2,7.4,0.7,7l4.2-4.2
		c0.9-0.9,2.4-0.9,3.3,0l9,9l9-9c0.9-0.9,2.4-0.9,3.3,0L33.5,7c0.9,0.9,0.9,2.4,0,3.3l-9,9l9,9c0.9,0.9,0.9,2.4,0,3.3l-4.2,4.2
		c-0.9,0.9-2.4,0.9-3.3,0l-9-9l-9,9c-0.4,0.4-1,0.7-1.6,0.7c-0.6,0-1.2-0.2-1.6-0.7l-4.2-4.2c-0.9-0.9-0.9-2.4,0-3.3l9-9L0.7,10.2z"
		/>
</g>
</svg>
