<?xml version="1.0" encoding="utf-8"?>
<!-- Generator: Adobe Illustrator 18.0.0, SVG Export Plug-In . SVG Version: 6.00 Build 0)  -->
<!DOCTYPE svg PUBLIC "-//W3C//DTD SVG 1.1//EN" "http://www.w3.org/Graphics/SVG/1.1/DTD/svg11.dtd">
<svg version="1.1" id="Layer_1" xmlns="http://www.w3.org/2000/svg" xmlns:xlink="http://www.w3.org/1999/xlink" x="0px" y="0px"
	 viewBox="0 0 128 128" enable-background="new 0 0 128 128" xml:space="preserve">
<path id="user-13-icon" fill="#010101" d="M128,106.7H94.9c0-36-18-18.9-18-50.4c0-11.4,7.5-17.6,17-17.6c14.1,0,24,13.5,10.6,38.7
	c-4.4,8.3,4.7,10.3,14.4,12.5C128.7,92.3,128,97.4,128,106.7z M74.3,85.7C62,82.9,50.6,80.4,56.1,70C73,38.2,60.6,21.3,42.8,21.3
	c-18.1,0-30.2,17.6-13.3,48.7c5.7,10.5-6.2,13-18.2,15.7C-0.9,88.5,0,95,0,106.7h85.6C85.6,95,86.6,88.5,74.3,85.7z"/>
</svg>
