<?xml version="1.0" encoding="utf-8"?>
<!-- Generator: Adobe Illustrator 18.0.0, SVG Export Plug-In . SVG Version: 6.00 Build 0)  -->
<!DOCTYPE svg PUBLIC "-//W3C//DTD SVG 1.1//EN" "http://www.w3.org/Graphics/SVG/1.1/DTD/svg11.dtd">
<svg version="1.1" id="Layer_1" xmlns="http://www.w3.org/2000/svg" xmlns:xlink="http://www.w3.org/1999/xlink" x="0px" y="0px"
	 viewBox="0 0 128 128" enable-background="new 0 0 128 128" xml:space="preserve">
<g>
	<path fill="#231F20" d="M128,88v3.3c0,2-1.6,3.6-3.6,3.6h-23.5c-2.4-1.5-4.8-2.5-6.7-3.2l-1.1-0.4c-0.4-0.2-1.2-0.4-2.3-0.8
		c-6.2-2-8.8-3.3-9.9-4v-1.1c3.3-3.3,5.5-6.3,7.1-11.1c6.9-1.9,8.3-9.5,9.1-13.9c0.3-1.7,1.3-7.1-2-11c-0.6-0.7-1.2-1.2-1.8-1.7
		c0.5-8.1-2.3-13.9-5.1-17.5c-3.1-3.9-7.2-6.8-11.6-8.8c1.4-7.6,5.9-9.8,13.5-9.8c0,0-0.7-3.5,4.9-3.5c8.9,0,26.7,6.5,22,25.3
		c2.8,0,4.4,0.5,3.4,6.3c-1.1,6.5-2.4,8.1-5.5,8.1c-0.4,0-0.4,0-0.7,0.3c-1.3,6.5-3.2,8-6.8,11.9v5.7c0,4.8,7.6,8,9.4,8.7
		C121.7,76.7,128,78.5,128,88z M33.8,91.8l1.1-0.4c0.4-0.2,1.2-0.4,2.3-0.8c6.2-2,8.8-3.3,9.9-4v-0.8c-3.7-3.2-6.3-6.6-8.1-12
		c-6.2-2.8-7.5-10.4-8.1-13.3c-0.3-1.7-1.3-7,1.9-10.9c0.6-0.7,1.2-1.3,1.8-1.7c-0.5-9.6,1.1-15.7,4.9-20c3.2-3.5,7.4-5,11.3-5.5
		c-3.1-10.3-15.2-14.1-22-14.1c-5.6,0-4.9,3.5-4.9,3.5c-10.6,0-15.4,4.3-13.6,21.7c-2.6,0.1-4.8,0.8-3.8,6.3
		c1.1,6.4,3.1,8.1,6.1,8.1c1.5,6.7,3.9,8.8,7.9,12.7v5.3c0,4.8-7.6,8-9.4,8.7C6.3,76.7,0,78.5,0,88v3.3c0,2,1.6,3.6,3.6,3.6h23.5
		C29.5,93.5,31.9,92.5,33.8,91.8z M90.6,97.4c-2-0.8-16.3-4.3-16.3-9.5v-5.3c5.2-4.6,7.1-7.4,8.5-14.5c0.4,0.1,1.2,0.2,1.6,0.2
		c3.5,0,4.9-1.8,6.1-8.9c1.1-6.4-1.6-6.9-4.7-6.9c5.3-20.6-14.3-27.7-24.2-27.7c-6.2,0-5.4,3.9-5.4,3.9c-11.9,0-16.6,4.7-14.5,23.8
		c-2.9,0.1-5.3,0.8-4.2,6.9c1.3,7,3.4,8.9,6.9,8.9c1.7,7.3,4,10.2,9.4,14.4v5.3c0,5.3-14.3,8.7-16.3,9.5
		c-5.6,2.2-12.6,4.2-12.6,14.7v3.6c0,2.2,1.8,3.9,4.1,3.9h70.3c2.3,0,4.1-1.8,4.1-3.9v-3.6C103.2,101.7,96.2,99.7,90.6,97.4z"/>
</g>
</svg>
