<?xml version="1.0" encoding="utf-8"?>
<!-- Generator: Adobe Illustrator 18.0.0, SVG Export Plug-In . SVG Version: 6.00 Build 0)  -->
<!DOCTYPE svg PUBLIC "-//W3C//DTD SVG 1.1//EN" "http://www.w3.org/Graphics/SVG/1.1/DTD/svg11.dtd">
<svg version="1.1" id="Layer_1" xmlns="http://www.w3.org/2000/svg" xmlns:xlink="http://www.w3.org/1999/xlink" x="0px" y="0px"
	 viewBox="0 0 128 128" enable-background="new 0 0 128 128" xml:space="preserve">
<path id="radio-tower-7-icon" d="M107,0c10.3,10.3,16.7,24.6,16.7,40.3c0,15.7-6.4,30-16.7,40.3l-8.3-8.3c8.2-8.2,13.2-19.5,13.2-32
	s-5.1-23.8-13.2-32L107,0z M82.8,24.2c4.1,4.1,6.7,9.8,6.7,16.1s-2.5,12-6.7,16.1l8.4,8.4c6.3-6.3,10.2-14.9,10.2-24.5
	c0-9.6-3.9-18.2-10.2-24.5L82.8,24.2z M29.3,8.3c-8.2,8.2-13.2,19.5-13.2,32s5.1,23.8,13.2,32L21,80.6C10.7,70.3,4.3,56.1,4.3,40.3
	S10.7,10.3,21,0L29.3,8.3z M36.8,15.8c-6.3,6.3-10.2,14.9-10.2,24.5c0,9.6,3.9,18.2,10.2,24.5l8.4-8.4c-4.1-4.1-6.7-9.8-6.7-16.1
	s2.5-12,6.7-16.1L36.8,15.8z M71,57.7c-0.4-2.5,0.6-5.1,2.4-6.8c2.7-2.5,4.4-6,4.6-9.9c0.2-7.7-5.9-14.2-13.6-14.4
	c-7.7-0.2-14.2,5.9-14.4,13.6c-0.1,4.3,1.7,8.1,4.6,10.8c1.9,1.7,2.8,4.3,2.4,6.8c-4.1,28.5-14.2,51.7-30.6,70.3h15.9
	c5.6-7.5,12.3-11.9,21.7-11.9h0c9.5,0,16.1,4.5,21.7,11.9h15.9C85.2,109.3,75.1,86.2,71,57.7z M56.7,103.7
	c2.9-6.3,5.3-12.9,7.3-19.8c2,6.9,4.5,13.5,7.3,19.8H56.7z"/>
</svg>
