<?xml version="1.0" encoding="utf-8"?>
<!-- Generator: Adobe Illustrator 18.0.0, SVG Export Plug-In . SVG Version: 6.00 Build 0)  -->
<!DOCTYPE svg PUBLIC "-//W3C//DTD SVG 1.1//EN" "http://www.w3.org/Graphics/SVG/1.1/DTD/svg11.dtd">
<svg version="1.1" id="Layer_1" xmlns="http://www.w3.org/2000/svg" xmlns:xlink="http://www.w3.org/1999/xlink" x="0px" y="0px"
	 viewBox="0 0 128 128" enable-background="new 0 0 128 128" xml:space="preserve">
<g>
	<path d="M59.7,66.1h8.5v44.8c0,8.2-6.7,14.9-14.9,14.9s-14.9-6.7-14.9-14.9v-2.1c0-2.4,1.9-4.3,4.3-4.3s4.3,1.9,4.3,4.3v2.1
		c0,3.5,2.9,6.4,6.4,6.4c3.5,0,6.4-2.9,6.4-6.4V66.1z M68.3,10.9V6.4c0-2.4-1.9-4.3-4.3-4.3c-2.4,0-4.3,1.9-4.3,4.3v4.5
		C26.8,13.2,0,41.2,0,74.7c0-8.5,9.6-17.1,21.3-17.1s21.3,8.5,21.3,17.1c0-8.5,9.6-17.1,21.3-17.1s21.3,8.5,21.3,17.1
		c0-8.5,9.6-17.1,21.3-17.1S128,66.1,128,74.7C128,41.2,101.2,13.2,68.3,10.9z"/>
</g>
</svg>
