<?xml version="1.0" encoding="utf-8"?>
<!-- Generator: Adobe Illustrator 18.0.0, SVG Export Plug-In . SVG Version: 6.00 Build 0)  -->
<!DOCTYPE svg PUBLIC "-//W3C//DTD SVG 1.1//EN" "http://www.w3.org/Graphics/SVG/1.1/DTD/svg11.dtd">
<svg version="1.1" id="Layer_1" xmlns="http://www.w3.org/2000/svg" xmlns:xlink="http://www.w3.org/1999/xlink" x="0px" y="0px"
	 viewBox="0 0 128 128" enable-background="new 0 0 128 128" xml:space="preserve">
<g>
	<path d="M128,72c0,6.6-5.4,12-12,12s-12-5.4-12-12c0-0.4,0.1-0.9,0.1-1.3l-9.3-4.2c-2.2,3.6-4.9,6.8-8.1,9.4l5.6,8.7
		c1.2-0.4,2.4-0.6,3.7-0.6c6.6,0,12,5.4,12,12s-5.4,12-12,12s-12-5.4-12-12c0-2.4,0.7-4.6,1.9-6.5l-6-9.3c-3.7,1.8-7.7,3.1-12,3.5v9
		c4.6,1.7,8,6,8,11.3c0,6.6-5.4,12-12,12s-12-5.4-12-12c0-5.2,3.4-9.6,8-11.3v-9c-4.3-0.5-8.3-1.7-12-3.5l-6,9.3
		c1.2,1.9,1.9,4.1,1.9,6.5c0,6.6-5.4,12-12,12s-12-5.4-12-12s5.4-12,12-12c1.3,0,2.5,0.3,3.7,0.6l5.6-8.7c-3.2-2.6-6-5.8-8.1-9.4
		l-9.3,4.2c0,0.4,0.1,0.8,0.1,1.3c0,6.6-5.4,12-12,12S0,78.6,0,72s5.4-12,12-12c3.3,0,6.3,1.3,8.4,3.5l9.4-4.3
		C28.6,55.7,28,51.9,28,48c0-19.9,16.1-36,36-36s36,16.1,36,36c0,3.9-0.6,7.7-1.8,11.2l9.4,4.3c2.2-2.1,5.1-3.5,8.4-3.5
		C122.6,60,128,65.4,128,72z M17,72c0-2.8-2.2-5-5-5s-5,2.2-5,5s2.2,5,5,5S17,74.8,17,72z M37,96c0-2.8-2.2-5-5-5s-5,2.2-5,5
		s2.2,5,5,5S37,98.8,37,96z M91,96c0,2.8,2.2,5,5,5s5-2.2,5-5s-2.2-5-5-5S91,93.2,91,96z M64,99c-2.8,0-5,2.2-5,5s2.2,5,5,5
		s5-2.2,5-5S66.8,99,64,99z M92.2,48c0-15.5-12.7-28.2-28.2-28.2S35.8,32.5,35.8,48S48.5,76.2,64,76.2C79.5,76.2,92.2,63.5,92.2,48z
		 M121,72c0-2.8-2.2-5-5-5s-5,2.2-5,5s2.2,5,5,5S121,74.8,121,72z M84,61.1c0-6.2-8.8-5.3-14-9.2v-3c1.1-1.4,2-3.1,2.3-5
		c1.4,0,2.2-0.6,2.6-3.6c0.4-2.5-0.5-2.8-1.6-2.8c1.9-8.2-5.4-11.5-9.9-11.5c-2.2,0-2.1,1.5-2.1,1.5c-4.5,0-7.8,2.2-6.5,10
		c-1.1,0-2,0.3-1.6,2.8c0.5,2.9,1.3,3.6,2.6,3.6c0.2,1.9,1.1,3.6,2.3,5v3c-5.2,3.9-14,3-14,9.2c0,0.1,0,0.1,0,0.2
		C48.3,67.7,55.7,72,64,72s15.7-4.3,20-10.8C84,61.2,84,61.1,84,61.1z"/>
</g>
</svg>
