<?xml version="1.0" encoding="utf-8"?>
<!-- Generator: Adobe Illustrator 18.0.0, SVG Export Plug-In . SVG Version: 6.00 Build 0)  -->
<!DOCTYPE svg PUBLIC "-//W3C//DTD SVG 1.1//EN" "http://www.w3.org/Graphics/SVG/1.1/DTD/svg11.dtd">
<svg version="1.1" id="Layer_1" xmlns="http://www.w3.org/2000/svg" xmlns:xlink="http://www.w3.org/1999/xlink" x="0px" y="0px"
	 viewBox="0 0 128 128" enable-background="new 0 0 128 128" xml:space="preserve">
<g>
	<path d="M125.8,38.2L65.5,10.7c-1-0.4-2.1-0.4-3,0L2.2,38.2c-1.4,0.6-2.2,2-2.2,3.6v6.4c0,1.9,1.5,3.5,3.3,3.5h4.9v58.5
		c0,4.2,3.3,7.6,7.3,7.6h5.1V68.1h86.7v49.5h4.8c4.2,0,7.6-3.5,7.6-7.8V51.6h4.9c1.8,0,3.3-1.6,3.3-3.5v-6.4
		C128,40.2,127.1,38.8,125.8,38.2z M41.3,50.7c0,0.5-0.4,0.9-0.9,0.9H21.5c-0.5,0-0.9-0.4-0.9-0.9v-6.4c0-0.5,0.4-0.9,0.9-0.9h18.9
		c0.5,0,0.9,0.4,0.9,0.9V50.7z M74.3,50.7c0,0.5-0.4,0.9-0.9,0.9H54.6c-0.5,0-0.9-0.4-0.9-0.9v-6.4c0-0.5,0.4-0.9,0.9-0.9h18.9
		c0.5,0,0.9,0.4,0.9,0.9V50.7z M107.4,50.7c0,0.5-0.4,0.9-0.9,0.9H87.6c-0.5,0-0.9-0.4-0.9-0.9v-6.4c0-0.5,0.4-0.9,0.9-0.9h18.9
		c0.5,0,0.9,0.4,0.9,0.9V50.7z M61.9,74.3v16.5c0,1.1-0.9,2.1-2.1,2.1H43.4c-1.1,0-2.1-0.9-2.1-2.1V74.3c0-1.1,0.9-2.1,2.1-2.1h6.2
		v4.1h4.1v-4.1h6.2C61,72.3,61.9,73.2,61.9,74.3z M86.7,74.3v16.5c0,1.1-0.9,2.1-2.1,2.1H68.1c-1.1,0-2.1-0.9-2.1-2.1V74.3
		c0-1.1,0.9-2.1,2.1-2.1h6.2v4.1h4.1v-4.1h6.2C85.8,72.3,86.7,73.2,86.7,74.3z M49.5,99.1v16.5c0,1.1-0.9,2.1-2.1,2.1H31
		c-1.1,0-2.1-0.9-2.1-2.1V99.1c0-1.1,0.9-2.1,2.1-2.1h6.2v4.1h4.1V97h6.2C48.6,97,49.5,98,49.5,99.1z M74.3,99.1v16.5
		c0,1.1-0.9,2.1-2.1,2.1H55.7c-1.1,0-2.1-0.9-2.1-2.1V99.1c0-1.1,0.9-2.1,2.1-2.1h6.2v4.1h4.1V97h6.2C73.4,97,74.3,98,74.3,99.1z
		 M99.1,99.1v16.5c0,1.1-0.9,2.1-2.1,2.1H80.5c-1.1,0-2.1-0.9-2.1-2.1V99.1c0-1.1,0.9-2.1,2.1-2.1h6.2v4.1h4.1V97H97
		C98.2,97,99.1,98,99.1,99.1z"/>
</g>
</svg>
